<svg width="888" height="888" viewBox="0 0 888 888" fill="none" xmlns="http://www.w3.org/2000/svg">
<path d="M444.91 686H444.478C443.256 686 442.052 686 440.848 685.964L441.226 660.085C442.304 660.103 443.4 660.103 444.478 660.103H444.91V686ZM454.021 685.82L453.033 659.959C454.111 659.923 455.189 659.87 456.267 659.816L457.669 685.677C456.465 685.712 455.243 685.766 454.021 685.82ZM431.755 685.677C430.551 685.605 429.347 685.533 428.143 685.461L429.85 659.636C430.928 659.708 432.024 659.78 433.121 659.834L431.755 685.677ZM466.763 684.994L464.372 659.223C465.469 659.115 466.547 659.007 467.625 658.899L470.357 684.652C469.171 684.76 467.967 684.868 466.763 684.994ZM419.067 684.67C417.845 684.544 416.641 684.4 415.437 684.257L418.546 658.558C419.624 658.683 420.685 658.809 421.763 658.917L419.067 684.67ZM479.414 683.484L475.658 657.875C476.737 657.713 477.815 657.551 478.893 657.372L483.008 682.927C481.822 683.125 480.618 683.304 479.414 683.484ZM406.415 682.999C405.211 682.801 404.007 682.603 402.803 682.388L407.278 656.886C408.338 657.066 409.399 657.246 410.459 657.425L406.415 682.999ZM491.958 681.327L486.908 655.934C487.969 655.718 489.029 655.502 490.071 655.269L495.534 680.573C494.348 680.842 493.144 681.076 491.958 681.327ZM393.872 680.662C392.685 680.411 391.499 680.141 390.313 679.872L396.118 654.64C397.178 654.891 398.239 655.125 399.299 655.341L393.872 680.662ZM504.412 678.488L497.96 653.418C499.021 653.148 500.063 652.879 501.105 652.591L507.916 677.571C506.766 677.877 505.58 678.182 504.412 678.488ZM381.489 677.679C380.303 677.356 379.135 677.032 377.967 676.691L385.12 651.8C386.162 652.106 387.186 652.393 388.247 652.663L381.489 677.679ZM516.668 674.984L508.923 650.273C509.965 649.949 510.99 649.626 512.014 649.284L520.137 673.869C518.987 674.247 517.819 674.624 516.668 674.984ZM369.269 674.013C368.119 673.636 366.969 673.24 365.837 672.863L374.247 648.368C375.289 648.727 376.332 649.069 377.374 649.41L369.269 674.013ZM528.727 670.85L519.652 646.607C520.676 646.229 521.682 645.834 522.689 645.438L532.106 669.556C530.991 669.987 529.859 670.419 528.727 670.85ZM357.228 669.7C356.096 669.251 354.964 668.801 353.832 668.352L363.572 644.36C364.579 644.774 365.585 645.169 366.609 645.564L357.228 669.7ZM540.516 666.088L530.219 642.329C531.207 641.898 532.178 641.467 533.166 641.018L543.841 664.596C542.745 665.117 541.63 665.602 540.516 666.088ZM345.457 664.758C344.343 664.255 343.229 663.751 342.133 663.23L353.149 639.795C354.137 640.263 355.108 640.712 356.114 641.161L345.457 664.758ZM552.054 660.714L540.48 637.567C541.451 637.082 542.403 636.597 543.374 636.093L555.306 659.079C554.21 659.618 553.132 660.157 552.054 660.714ZM333.956 659.187C332.877 658.63 331.817 658.072 330.739 657.497L342.941 634.674C343.912 635.195 344.864 635.698 345.835 636.201L333.956 659.187ZM563.268 654.73L550.49 632.212C551.443 631.672 552.377 631.133 553.312 630.594L566.413 652.915C565.37 653.526 564.328 654.137 563.268 654.73ZM322.778 653.04C321.735 652.429 320.693 651.8 319.651 651.171L333.075 629.031C334.01 629.588 334.944 630.145 335.879 630.702L322.778 653.04ZM574.158 648.17L560.23 626.353C561.147 625.778 562.046 625.185 562.944 624.592L577.213 646.193C576.207 646.858 575.182 647.505 574.158 648.17ZM311.923 646.301C310.917 645.636 309.91 644.953 308.904 644.27L323.479 622.866C324.377 623.477 325.276 624.088 326.192 624.681L311.923 646.301ZM584.725 641.018L569.629 619.991C570.51 619.362 571.409 618.715 572.289 618.068L587.654 638.915C586.666 639.616 585.696 640.317 584.725 641.018ZM301.464 639.005C300.493 638.286 299.523 637.567 298.553 636.83L314.205 616.217C315.068 616.882 315.949 617.529 316.829 618.176L301.464 639.005ZM594.843 633.362L578.723 613.108C579.567 612.443 580.394 611.76 581.239 611.077L597.7 631.061C596.748 631.834 595.795 632.607 594.843 633.362ZM291.418 631.169C290.484 630.396 289.549 629.624 288.615 628.833L305.364 609.082C306.19 609.783 307.017 610.466 307.862 611.167L291.418 631.169ZM604.601 625.167L587.403 605.811C588.212 605.093 589.02 604.374 589.829 603.637L607.297 622.741C606.416 623.549 605.518 624.358 604.601 625.167ZM281.768 622.812C280.869 622.004 279.988 621.177 279.108 620.35L296.827 601.48C297.618 602.235 298.427 602.972 299.236 603.709L281.768 622.812ZM613.892 616.469L595.741 598.012C596.514 597.257 597.269 596.484 598.024 595.729L616.48 613.881C615.636 614.761 614.773 615.624 613.892 616.469ZM272.602 614.006C271.74 613.144 270.895 612.263 270.05 611.383L288.776 593.501C289.513 594.274 290.268 595.047 291.023 595.819L272.602 614.006ZM622.734 607.285L603.631 589.817C604.368 589.026 605.086 588.217 605.805 587.409L625.178 604.589C624.37 605.488 623.561 606.387 622.734 607.285ZM263.904 604.697C263.096 603.799 262.305 602.882 261.514 601.966L281.121 585.055C281.821 585.881 282.54 586.69 283.259 587.499L263.904 604.697ZM631.091 597.67L611.107 581.209C611.79 580.364 612.473 579.537 613.156 578.693L633.391 594.831C632.618 595.783 631.863 596.736 631.091 597.67ZM255.691 594.957C254.937 594.004 254.182 593.052 253.427 592.081L273.914 576.266C274.579 577.111 275.244 577.956 275.909 578.8L255.691 594.957ZM638.926 587.606L618.098 572.241C618.745 571.36 619.374 570.48 620.021 569.599L641.083 584.659C640.364 585.648 639.645 586.618 638.926 587.606ZM248.018 584.803C247.317 583.814 246.616 582.826 245.933 581.838L267.193 567.065C267.822 567.964 268.433 568.844 269.062 569.725L248.018 584.803ZM646.222 577.165L624.621 562.896C625.214 561.997 625.807 561.099 626.382 560.182L648.217 574.092C647.552 575.116 646.887 576.141 646.222 577.165ZM240.883 574.254C240.236 573.229 239.589 572.205 238.96 571.181L260.975 557.558C261.55 558.475 262.125 559.391 262.7 560.308L240.883 574.254ZM652.98 566.31L630.641 553.227C631.199 552.293 631.738 551.34 632.277 550.388L654.795 563.165C654.184 564.208 653.591 565.268 652.98 566.31ZM234.324 563.381C233.731 562.321 233.138 561.26 232.545 560.2L255.242 547.746C255.763 548.698 256.284 549.633 256.824 550.567L234.324 563.381ZM659.126 555.132L636.141 543.217C636.644 542.247 637.129 541.294 637.614 540.324L660.779 551.879C660.24 552.975 659.683 554.054 659.126 555.132ZM228.321 552.167C227.782 551.089 227.243 549.992 226.722 548.896L250.048 537.664C250.516 538.634 250.983 539.605 251.468 540.557L228.321 552.167ZM664.697 543.63L641.101 532.991C641.55 532.003 641.999 530.996 642.431 530.008L666.188 540.306C665.703 541.42 665.2 542.516 664.697 543.63ZM222.948 540.629C222.463 539.515 221.995 538.401 221.528 537.286L245.412 527.312C245.825 528.301 246.257 529.307 246.688 530.296L222.948 540.629ZM669.657 531.859L645.522 522.46C645.917 521.454 646.312 520.429 646.69 519.405L670.951 528.445C670.519 529.595 670.088 530.727 669.657 531.859ZM218.186 528.858C217.754 527.726 217.341 526.575 216.928 525.425L241.314 516.745C241.674 517.77 242.051 518.776 242.429 519.782L218.186 528.858ZM673.97 519.8L649.367 511.731C649.709 510.689 650.032 509.646 650.374 508.604L675.084 516.314C674.725 517.5 674.365 518.65 673.97 519.8ZM214.034 516.781C213.675 515.631 213.315 514.481 212.974 513.331L237.774 505.89C238.098 506.933 238.403 507.993 238.745 509.035L214.034 516.781ZM677.636 507.616L652.656 500.822C652.944 499.78 653.213 498.738 653.483 497.695L678.571 504.075C678.265 505.243 677.959 506.429 677.636 507.616ZM210.53 504.525C210.224 503.356 209.937 502.17 209.649 500.984L234.827 494.946C235.078 496.006 235.348 497.048 235.618 498.091L210.53 504.525ZM680.637 495.197L655.316 489.77C655.549 488.71 655.765 487.649 655.981 486.589L681.374 491.639C681.14 492.825 680.889 494.011 680.637 495.197ZM207.69 492.106C207.457 490.92 207.223 489.716 207.008 488.53L232.473 483.821C232.67 484.882 232.868 485.96 233.084 487.02L207.69 492.106ZM682.973 482.689L657.418 478.574C657.58 477.514 657.742 476.453 657.904 475.375L683.531 479.059C683.351 480.281 683.171 481.485 682.973 482.689ZM205.516 479.526C205.336 478.322 205.175 477.136 205.013 475.932L230.676 472.553C230.819 473.632 230.963 474.71 231.125 475.788L205.516 479.526ZM684.663 470.037L658.91 467.306C659.018 466.227 659.126 465.167 659.234 464.089L685.022 466.407C684.896 467.611 684.789 468.833 684.663 470.037ZM204.006 466.892C203.899 465.67 203.791 464.466 203.701 463.244L229.507 461.267C229.579 462.346 229.687 463.424 229.777 464.484L204.006 466.892ZM685.669 457.314L659.809 455.984C659.863 454.887 659.916 453.809 659.952 452.713L685.813 453.701C685.777 454.905 685.723 456.11 685.669 457.314ZM203.18 454.169C203.126 452.965 203.09 451.76 203.054 450.538L228.932 449.891C228.95 450.97 228.986 452.066 229.04 453.144L203.18 454.169ZM660.114 444.59C660.114 443.404 660.114 442.379 660.096 441.337L685.975 440.942C685.993 442.128 686.011 443.332 685.993 444.518L660.114 444.59ZM228.878 441.75L203 441.445C203.018 440.223 203.036 439.019 203.072 437.815L228.95 438.498C228.914 439.576 228.896 440.672 228.878 441.75ZM659.809 433.214C659.755 432.118 659.683 431.039 659.611 429.943L685.436 428.236C685.507 429.44 685.579 430.644 685.651 431.848L659.809 433.214ZM229.328 430.392L203.485 428.721C203.557 427.517 203.647 426.295 203.755 425.091L229.561 427.14C229.472 428.218 229.4 429.296 229.328 430.392ZM658.928 421.856C658.82 420.778 658.694 419.699 658.569 418.621L684.267 415.548C684.411 416.752 684.555 417.956 684.681 419.178L658.928 421.856ZM230.352 419.052L204.635 416.015C204.779 414.811 204.923 413.607 205.085 412.403L230.747 415.818C230.622 416.914 230.496 417.974 230.352 419.052ZM657.454 410.57C657.293 409.492 657.113 408.431 656.915 407.371L682.416 402.932C682.632 404.118 682.83 405.322 683.009 406.526L657.454 410.57ZM231.987 407.802L206.468 403.399C206.666 402.195 206.882 401.009 207.115 399.823L232.563 404.585C232.365 405.664 232.167 406.724 231.987 407.802ZM655.37 399.41C655.136 398.349 654.902 397.271 654.669 396.211L679.9 390.424C680.17 391.61 680.44 392.778 680.691 393.964L655.37 399.41ZM234.216 396.642L208.966 390.909C209.236 389.723 209.524 388.519 209.811 387.333L234.953 393.497C234.701 394.539 234.45 395.6 234.216 396.642ZM652.692 388.339C652.405 387.297 652.117 386.237 651.811 385.194L676.702 378.096C677.025 379.264 677.348 380.414 677.672 381.582L652.692 388.339ZM237.037 385.626L212.129 378.563C212.453 377.395 212.794 376.227 213.154 375.058L237.954 382.499C237.63 383.541 237.325 384.583 237.037 385.626ZM649.439 377.449C649.098 376.424 648.756 375.382 648.397 374.358L672.874 365.911C673.269 367.061 673.646 368.211 674.042 369.361L649.439 377.449ZM240.434 374.753L215.939 366.36C216.335 365.21 216.73 364.06 217.143 362.91L241.512 371.662C241.153 372.686 240.793 373.711 240.434 374.753ZM645.611 366.738C645.216 365.731 644.821 364.725 644.407 363.718L668.399 353.996C668.848 355.11 669.297 356.242 669.729 357.357L645.611 366.738ZM244.424 364.06L220.414 354.373C220.863 353.241 221.331 352.127 221.798 351.013L245.663 361.059C245.25 362.047 244.837 363.053 244.424 364.06ZM641.226 356.278C640.777 355.29 640.328 354.319 639.879 353.331L663.331 342.35C663.852 343.447 664.355 344.543 664.841 345.657L641.226 356.278ZM248.97 353.601L225.5 342.656C226.021 341.542 226.542 340.445 227.081 339.331L250.354 350.671C249.905 351.642 249.437 352.612 248.97 353.601ZM636.302 346.053C635.799 345.082 635.296 344.13 634.793 343.177L657.634 330.974C658.209 332.035 658.766 333.113 659.323 334.191L636.302 346.053ZM254.074 343.411L231.215 331.244C231.79 330.166 232.365 329.105 232.958 328.045L255.62 340.553C255.098 341.488 254.577 342.44 254.074 343.411ZM630.821 336.096C630.282 335.162 629.725 334.245 629.168 333.311L651.326 319.904C651.955 320.946 652.566 321.989 653.195 323.031L630.821 336.096ZM259.699 333.508L237.523 320.138C238.152 319.095 238.781 318.071 239.428 317.029L261.388 330.723C260.813 331.639 260.256 332.574 259.699 333.508ZM624.855 326.446C624.262 325.547 623.651 324.631 623.058 323.75L644.479 309.211C645.162 310.217 645.827 311.224 646.492 312.23L624.855 326.446ZM265.827 323.912L244.406 309.391C245.088 308.384 245.771 307.396 246.454 306.408L267.696 321.198C267.067 322.097 266.438 322.995 265.827 323.912ZM618.349 317.101C617.702 316.238 617.055 315.357 616.408 314.495L637.039 298.86C637.776 299.83 638.495 300.8 639.214 301.771L618.349 317.101ZM272.458 314.638L251.828 299.003C252.564 298.033 253.301 297.08 254.038 296.128L274.453 312.051C273.788 312.913 273.123 313.776 272.458 314.638ZM611.394 308.133C610.711 307.288 610.011 306.461 609.31 305.635L629.096 288.939C629.869 289.856 630.641 290.79 631.414 291.725L611.394 308.133ZM279.575 305.743L259.771 289.065C260.562 288.131 261.352 287.214 262.143 286.298L281.678 303.299C280.977 304.089 280.276 304.916 279.575 305.743ZM603.954 299.507C603.217 298.698 602.499 297.907 601.744 297.116L620.632 279.415C621.458 280.295 622.285 281.194 623.112 282.092L603.954 299.507ZM287.141 297.224L268.235 279.54C269.062 278.66 269.907 277.779 270.751 276.898L289.387 294.888C288.633 295.643 287.878 296.433 287.141 297.224ZM596.065 291.294C595.292 290.539 594.519 289.784 593.747 289.029L611.664 270.339C612.545 271.184 613.407 272.028 614.27 272.891L596.065 291.294ZM295.138 289.119L277.203 270.447C278.065 269.602 278.946 268.775 279.845 267.949L297.51 286.873C296.702 287.627 295.911 288.364 295.138 289.119ZM587.798 283.512C586.99 282.793 586.163 282.074 585.336 281.355L602.265 261.767C603.182 262.557 604.08 263.348 604.997 264.157L587.798 283.512ZM303.549 281.445L286.602 261.874C287.518 261.084 288.453 260.293 289.369 259.502L306.011 279.343C305.184 280.043 304.357 280.744 303.549 281.445ZM579.064 276.144C578.22 275.461 577.375 274.796 576.512 274.131L592.399 253.697C593.351 254.452 594.322 255.189 595.256 255.962L579.064 276.144ZM312.336 274.221L296.432 253.787C297.384 253.032 298.355 252.296 299.343 251.559L314.906 272.244C314.044 272.909 313.181 273.574 312.336 274.221ZM570.007 269.279C569.126 268.65 568.228 268.021 567.329 267.392L582.119 246.149C583.108 246.832 584.096 247.533 585.085 248.252L570.007 269.279ZM321.484 267.481L306.676 246.239C307.664 245.538 308.67 244.855 309.677 244.19L324.161 265.648C323.263 266.259 322.382 266.87 321.484 267.481ZM560.572 262.863C559.655 262.27 558.739 261.695 557.822 261.12L571.48 239.123C572.505 239.77 573.547 240.417 574.571 241.063L560.572 262.863ZM330.991 261.227L317.314 239.248C318.339 238.601 319.381 237.972 320.441 237.343L333.758 259.556C332.806 260.113 331.889 260.67 330.991 261.227ZM550.832 256.968C549.897 256.429 548.945 255.908 547.992 255.387L560.446 232.689C561.524 233.282 562.585 233.875 563.645 234.468L550.832 256.968ZM340.785 255.495L328.277 232.815C329.337 232.24 330.397 231.646 331.476 231.089L343.624 253.949C342.672 254.452 341.719 254.973 340.785 255.495ZM540.768 251.595C539.797 251.109 538.827 250.624 537.856 250.157L549.106 226.83C550.203 227.369 551.299 227.89 552.395 228.448L540.768 251.595ZM350.867 250.283L339.581 226.974C340.659 226.453 341.755 225.932 342.851 225.428L353.796 248.881C352.825 249.348 351.837 249.798 350.867 250.283ZM530.452 246.76C529.464 246.329 528.457 245.898 527.451 245.484L537.443 221.6C538.575 222.068 539.689 222.553 540.804 223.038L530.452 246.76ZM361.2 245.61L351.172 221.744C352.286 221.277 353.401 220.81 354.515 220.36L364.201 244.37C363.195 244.784 362.188 245.179 361.2 245.61ZM519.885 242.465C518.879 242.088 517.854 241.71 516.83 241.351L525.528 216.964C526.678 217.377 527.829 217.79 528.979 218.222L519.885 242.465ZM371.749 241.495L362.997 217.126C364.129 216.712 365.279 216.317 366.43 215.921L374.804 240.417C373.798 240.758 372.773 241.117 371.749 241.495ZM509.103 238.763C508.06 238.44 507.018 238.116 505.976 237.811L513.38 213.01C514.548 213.352 515.716 213.711 516.866 214.088L509.103 238.763ZM382.568 237.936L375.11 213.136C376.278 212.794 377.428 212.453 378.596 212.112L385.677 237.02C384.652 237.307 383.61 237.613 382.568 237.936ZM498.158 235.636C497.098 235.367 496.056 235.097 494.995 234.845L501.069 209.685C502.238 209.973 503.424 210.26 504.592 210.566L498.158 235.636ZM393.548 234.953L387.438 209.793C388.624 209.506 389.792 209.218 390.978 208.967L396.711 234.216C395.651 234.45 394.59 234.702 393.548 234.953ZM487.052 233.084C485.992 232.869 484.931 232.671 483.871 232.473L488.579 207.008C489.784 207.223 490.97 207.457 492.174 207.709L487.052 233.084ZM404.654 232.563L399.892 207.115C401.078 206.9 402.282 206.684 403.486 206.468L407.853 231.988C406.775 232.168 405.715 232.365 404.654 232.563ZM475.874 231.143C474.796 230.981 473.717 230.838 472.639 230.694L476.018 205.031C477.222 205.193 478.408 205.354 479.612 205.534L475.874 231.143ZM415.886 230.748L412.472 205.085C413.676 204.923 414.898 204.779 416.102 204.635L419.103 230.352C418.025 230.478 416.964 230.604 415.886 230.748ZM464.588 229.795C463.51 229.688 462.414 229.598 461.335 229.526L463.348 203.719C464.552 203.809 465.756 203.917 466.96 204.024L464.588 229.795ZM427.208 229.562L425.159 203.755C426.363 203.665 427.585 203.575 428.79 203.485L430.461 229.328C429.365 229.4 428.286 229.472 427.208 229.562ZM453.212 229.041C452.134 229.005 451.038 228.969 449.96 228.933L450.606 203.054C451.829 203.09 453.033 203.126 454.237 203.18L453.212 229.041ZM438.566 228.951L437.883 203.072C439.087 203.036 440.291 203.018 441.495 203L441.837 228.879C440.74 228.897 439.644 228.915 438.566 228.951Z" fill="#29292E"/>
<path opacity="0.55" d="M444.62 562.24C379.76 562.24 327 509.48 327 444.62C327 379.76 379.76 327 444.62 327C509.48 327 562.24 379.76 562.24 444.62C562.24 509.48 509.46 562.24 444.62 562.24ZM444.62 328.93C380.814 328.93 328.91 380.834 328.91 444.64C328.91 508.445 380.814 560.349 444.62 560.349C508.425 560.349 560.329 508.445 560.329 444.64C560.309 380.834 508.405 328.93 444.62 328.93Z" fill="#202024"/>
<path d="M382.441 490.149L399.125 506.833L508.111 397.846L491.428 381.163L382.441 490.149Z" fill="#7159C1"/>
<path d="M399.12 381.158L382.436 397.841L491.423 506.828L508.106 490.145L399.12 381.158Z" fill="#7159C1"/>
<path d="M422.44 463.282L425.992 466.834L468.12 424.706L464.568 421.154L422.44 463.282Z" fill="white"/>
<path d="M425.987 421.156L422.435 424.708L464.563 466.836L468.115 463.285L425.987 421.156Z" fill="white"/>
<path d="M332.929 277.723L346.525 268.384L332.929 259.045V277.723Z" fill="#04D361"/>
<path d="M357.797 277.723L371.392 268.384L357.797 259.045V277.723Z" fill="#04D361"/>
<path d="M382.665 277.723L396.26 268.384L382.665 259.045V277.723Z" fill="#04D361"/>
<path d="M434.477 277.723L448.089 268.384L434.477 259.045V277.723Z" fill="white"/>
<path d="M270.998 593.551L272.291 594.844L280.739 586.399L279.446 585.107L270.998 593.551Z" fill="white"/>
<path d="M272.292 585.109L270.999 586.402L279.447 594.846L280.74 593.553L272.292 585.109Z" fill="white"/>
<path d="M302.222 593.549L303.515 594.842L311.964 586.398L310.67 585.105L302.222 593.549Z" fill="white"/>
<path d="M303.52 585.107L302.227 586.4L310.675 594.844L311.968 593.551L303.52 585.107Z" fill="white"/>
<path d="M333.449 593.549L334.742 594.842L343.191 586.398L341.897 585.105L333.449 593.549Z" fill="#7159C1"/>
<path d="M334.749 585.103L333.456 586.396L341.904 594.84L343.197 593.547L334.749 585.103Z" fill="#7159C1"/>
<path d="M364.682 593.524L365.975 594.817L374.425 586.373L373.131 585.08L364.682 593.524Z" fill="#7159C1"/>
<path d="M365.964 585.116L364.671 586.408L373.119 594.853L374.412 593.56L365.964 585.116Z" fill="#7159C1"/>
<path d="M395.907 593.556L397.201 594.848L405.649 586.404L404.355 585.111L395.907 593.556Z" fill="#04D361"/>
<path d="M397.192 585.114L395.898 586.407L404.347 594.851L405.64 593.558L397.192 585.114Z" fill="#04D361"/>
<path d="M607.744 399.085C612.304 399.085 616 395.391 616 390.833C616 386.275 612.304 382.581 607.744 382.581C603.184 382.581 599.487 386.275 599.487 390.833C599.487 395.391 603.184 399.085 607.744 399.085Z" stroke="#04D361" stroke-width="2.8812" stroke-miterlimit="10"/>
<path d="M583.865 418.719C583.865 420.943 582.068 422.738 579.844 422.738C577.619 422.738 575.823 420.943 575.823 418.719C575.823 416.496 577.619 414.7 579.844 414.7C582.068 414.7 583.865 416.496 583.865 418.719Z" fill="#7159C1"/>
<path d="M509.335 590.679L470.986 552.349L432.637 590.679L470.986 629.01L509.335 590.679Z" stroke="#04D361" stroke-width="2" stroke-miterlimit="10"/>
<path d="M470.996 594.684C473.207 594.684 475 592.892 475 590.682C475 588.471 473.207 586.679 470.996 586.679C468.784 586.679 466.991 588.471 466.991 590.682C466.991 592.892 468.784 594.684 470.996 594.684Z" fill="#7159C1"/>
<circle cx="444" cy="444" r="435" stroke="#202024" stroke-width="2"/>
<path d="M583.136 208.349C583.136 202.488 586.219 199 590.468 199C594.717 199 597.824 202.488 597.824 208.349C597.824 214.211 594.717 217.699 590.468 217.699C586.219 217.699 583.136 214.211 583.136 208.349ZM595.882 208.349C595.882 203.433 593.673 200.744 590.468 200.744C587.263 200.744 585.054 203.457 585.054 208.349C585.054 213.242 587.263 215.955 590.468 215.955C593.673 215.979 595.882 213.266 595.882 208.349Z" fill="#7159C1"/>
<path d="M600.544 208.349C600.544 202.488 603.627 199 607.876 199C612.125 199 615.232 202.488 615.232 208.349C615.232 214.211 612.125 217.699 607.876 217.699C603.627 217.699 600.544 214.211 600.544 208.349ZM613.314 208.349C613.314 203.433 611.105 200.744 607.9 200.744C604.695 200.744 602.486 203.457 602.486 208.349C602.486 213.242 604.695 215.955 607.9 215.955C611.105 215.979 613.314 213.266 613.314 208.349Z" fill="#7159C1"/>
<path d="M623.001 199.17V217.53H621.107V200.841H616.762V199.17H623.001Z" fill="#7159C1"/>
<path d="M627.395 208.349C627.395 202.488 630.479 199 634.727 199C638.976 199 642.084 202.488 642.084 208.349C642.084 214.211 638.976 217.699 634.727 217.699C630.479 217.699 627.395 214.211 627.395 208.349ZM640.166 208.349C640.166 203.433 637.957 200.744 634.752 200.744C631.547 200.744 629.338 203.457 629.338 208.349C629.338 213.242 631.547 215.955 634.752 215.955C637.957 215.979 640.166 213.266 640.166 208.349Z" fill="#7159C1"/>
<path d="M649.877 199.17V217.53H647.983V200.841H643.637V199.17H649.877Z" fill="#7159C1"/>
<path d="M565 234.436C565 228.574 568.083 225.086 572.332 225.086C576.581 225.086 579.688 228.574 579.688 234.436C579.688 240.297 576.581 243.785 572.332 243.785C568.083 243.785 565 240.273 565 234.436ZM577.746 234.436C577.746 229.519 575.537 226.83 572.332 226.83C569.127 226.83 566.918 229.543 566.918 234.436C566.918 239.353 569.127 242.041 572.332 242.041C575.537 242.041 577.746 239.329 577.746 234.436Z" fill="#7159C1"/>
<path d="M582.407 234.436C582.407 228.574 585.491 225.086 589.739 225.086C593.988 225.086 597.096 228.574 597.096 234.436C597.096 240.297 593.988 243.785 589.739 243.785C585.491 243.785 582.407 240.273 582.407 234.436ZM595.178 234.436C595.178 229.519 592.968 226.83 589.764 226.83C586.559 226.83 584.35 229.543 584.35 234.436C584.35 239.353 586.559 242.041 589.764 242.041C592.968 242.041 595.178 239.329 595.178 234.436Z" fill="#7159C1"/>
<path d="M604.89 225.256V243.616H602.996V226.928H598.65V225.256H604.89Z" fill="#7159C1"/>
<path d="M609.284 234.436C609.284 228.574 612.367 225.086 616.616 225.086C620.865 225.086 623.972 228.574 623.972 234.436C623.972 240.297 620.865 243.785 616.616 243.785C612.367 243.785 609.284 240.273 609.284 234.436ZM622.03 234.436C622.03 229.519 619.821 226.83 616.616 226.83C613.411 226.83 611.202 229.543 611.202 234.436C611.202 239.353 613.411 242.041 616.616 242.041C619.821 242.041 622.03 239.329 622.03 234.436Z" fill="#7159C1"/>
<path d="M631.741 225.256V243.616H629.848V226.928H625.502V225.256H631.741Z" fill="#7159C1"/>
<path d="M641.234 225.256V243.616H639.34V226.928H634.995V225.256H641.234Z" fill="#7159C1"/>
<path d="M645.629 234.436C645.629 228.574 648.712 225.086 652.961 225.086C657.209 225.086 660.317 228.574 660.317 234.436C660.317 240.297 657.209 243.785 652.961 243.785C648.712 243.785 645.629 240.273 645.629 234.436ZM658.375 234.436C658.375 229.519 656.166 226.83 652.961 226.83C649.756 226.83 647.547 229.543 647.547 234.436C647.547 239.353 649.756 242.041 652.961 242.041C656.166 242.041 658.375 239.329 658.375 234.436Z" fill="#7159C1"/>
<path d="M668.086 225.256V243.616H666.192V226.928H661.847V225.256H668.086Z" fill="#7159C1"/>
<path d="M583.136 259.65C583.136 253.789 586.219 250.301 590.468 250.301C594.717 250.301 597.824 253.789 597.824 259.65C597.824 265.512 594.717 269 590.468 269C586.219 269 583.136 265.488 583.136 259.65ZM595.882 259.65C595.882 254.733 593.673 252.045 590.468 252.045C587.263 252.045 585.054 254.757 585.054 259.65C585.054 264.543 587.263 267.256 590.468 267.256C593.673 267.256 595.882 264.543 595.882 259.65Z" fill="#7159C1"/>
<path d="M605.594 250.471V268.831H603.7V252.142H599.354V250.471H605.594Z" fill="#7159C1"/>
<path d="M615.086 250.471V268.831H613.193V252.142H608.847V250.471H615.086Z" fill="#7159C1"/>
<path d="M624.579 250.471V268.831H622.685V252.142H618.339V250.471H624.579Z" fill="#7159C1"/>
<path d="M628.998 259.65C628.998 253.789 632.081 250.301 636.33 250.301C640.579 250.301 643.686 253.789 643.686 259.65C643.686 265.512 640.579 269 636.33 269C632.081 269 628.998 265.488 628.998 259.65ZM641.744 259.65C641.744 254.733 639.535 252.045 636.33 252.045C633.125 252.045 630.916 254.757 630.916 259.65C630.916 264.543 633.125 267.256 636.33 267.256C639.535 267.256 641.744 264.543 641.744 259.65Z" fill="#7159C1"/>
<path d="M651.455 250.471V268.831H649.562V252.142H645.216V250.471H651.455Z" fill="#7159C1"/>
<path d="M555.232 682.758C555.232 679.779 556.799 678 558.973 678C561.146 678 562.722 679.779 562.722 682.758C562.722 685.737 561.137 687.516 558.973 687.516C556.799 687.516 555.232 685.737 555.232 682.758ZM561.735 682.758C561.735 680.259 560.607 678.877 558.973 678.877C557.339 678.877 556.211 680.251 556.211 682.758C556.211 685.257 557.339 686.639 558.973 686.639C560.607 686.639 561.735 685.257 561.735 682.758Z" fill="#737380"/>
<path d="M564.099 682.758C564.099 679.779 565.666 678 567.839 678C570.013 678 571.589 679.779 571.589 682.758C571.589 685.737 570.004 687.516 567.839 687.516C565.666 687.516 564.099 685.737 564.099 682.758ZM570.601 682.758C570.601 680.259 569.473 678.877 567.839 678.877C566.205 678.877 565.077 680.251 565.077 682.758C565.077 685.257 566.205 686.639 567.839 686.639C569.473 686.639 570.601 685.257 570.601 682.758Z" fill="#737380"/>
<path d="M575.545 678.075V687.442H574.583V678.935H572.368V678.083H575.545V678.075Z" fill="#737380"/>
<path d="M577.776 682.758C577.776 679.779 579.344 678 581.517 678C583.69 678 585.266 679.779 585.266 682.758C585.266 685.737 583.682 687.516 581.517 687.516C579.344 687.516 577.776 685.737 577.776 682.758ZM584.279 682.758C584.279 680.259 583.151 678.877 581.517 678.877C579.883 678.877 578.755 680.251 578.755 682.758C578.755 685.257 579.883 686.639 581.517 686.639C583.151 686.639 584.279 685.257 584.279 682.758Z" fill="#737380"/>
<path d="M589.223 678.075V687.442H588.26V678.935H586.046V678.083H589.223V678.075Z" fill="#737380"/>
<path d="M546 696.039C546 693.06 547.568 691.281 549.741 691.281C551.914 691.281 553.49 693.06 553.49 696.039C553.49 699.018 551.906 700.798 549.741 700.798C547.568 700.798 546 699.018 546 696.039ZM552.503 696.039C552.503 693.54 551.375 692.158 549.741 692.158C548.107 692.158 546.979 693.532 546.979 696.039C546.979 698.538 548.107 699.92 549.741 699.92C551.375 699.912 552.503 698.538 552.503 696.039Z" fill="#737380"/>
<path d="M554.867 696.039C554.867 693.06 556.434 691.281 558.608 691.281C560.781 691.281 562.357 693.06 562.357 696.039C562.357 699.018 560.772 700.798 558.608 700.798C556.434 700.798 554.867 699.018 554.867 696.039ZM561.37 696.039C561.37 693.54 560.242 692.158 558.608 692.158C556.974 692.158 555.846 693.532 555.846 696.039C555.846 698.538 556.974 699.92 558.608 699.92C560.242 699.92 561.37 698.538 561.37 696.039Z" fill="#737380"/>
<path d="M566.313 691.356V700.715H565.351V692.208H563.136V691.356H566.313Z" fill="#737380"/>
<path d="M568.544 696.039C568.544 693.06 570.112 691.281 572.285 691.281C574.458 691.281 576.034 693.06 576.034 696.039C576.034 699.018 574.45 700.798 572.285 700.798C570.112 700.798 568.544 699.018 568.544 696.039ZM575.047 696.039C575.047 693.54 573.919 692.158 572.285 692.158C570.651 692.158 569.523 693.532 569.523 696.039C569.523 698.538 570.651 699.92 572.285 699.92C573.919 699.912 575.047 698.538 575.047 696.039Z" fill="#737380"/>
<path d="M579.991 691.356V700.715H579.029V692.208H576.814V691.356H579.991Z" fill="#737380"/>
<path d="M584.827 691.356V700.715H583.864V692.208H581.65V691.356H584.827Z" fill="#737380"/>
<path d="M587.058 696.039C587.058 693.06 588.625 691.281 590.798 691.281C592.972 691.281 594.548 693.06 594.548 696.039C594.548 699.018 592.963 700.798 590.798 700.798C588.625 700.798 587.058 699.018 587.058 696.039ZM593.56 696.039C593.56 693.54 592.432 692.158 590.798 692.158C589.164 692.158 588.036 693.532 588.036 696.039C588.036 698.538 589.164 699.92 590.798 699.92C592.432 699.912 593.56 698.538 593.56 696.039Z" fill="#737380"/>
<path d="M598.504 691.356V700.715H597.542V692.208H595.327V691.356H598.504Z" fill="#737380"/>
<path d="M555.232 708.874C555.232 705.895 556.799 704.116 558.973 704.116C561.146 704.116 562.722 705.895 562.722 708.874C562.722 711.853 561.137 713.632 558.973 713.632C556.799 713.64 555.232 711.861 555.232 708.874ZM561.735 708.874C561.735 706.375 560.607 704.993 558.973 704.993C557.339 704.993 556.211 706.367 556.211 708.874C556.211 711.373 557.339 712.755 558.973 712.755C560.607 712.755 561.735 711.373 561.735 708.874Z" fill="#737380"/>
<path d="M566.678 704.199V713.558H565.716V705.051H563.501V704.199H566.678Z" fill="#737380"/>
<path d="M571.514 704.199V713.558H570.552V705.051H568.337V704.199H571.514Z" fill="#737380"/>
<path d="M576.35 704.199V713.558H575.387V705.051H573.173V704.199H576.35Z" fill="#737380"/>
<path d="M578.581 708.874C578.581 705.895 580.148 704.116 582.322 704.116C584.495 704.116 586.071 705.895 586.071 708.874C586.071 711.853 584.486 713.632 582.322 713.632C580.157 713.64 578.581 711.861 578.581 708.874ZM585.084 708.874C585.084 706.375 583.956 704.993 582.322 704.993C580.688 704.993 579.56 706.367 579.56 708.874C579.56 711.373 580.688 712.755 582.322 712.755C583.964 712.755 585.084 711.373 585.084 708.874Z" fill="#737380"/>
<path d="M590.027 704.199V713.558H589.065V705.051H586.85V704.199H590.027Z" fill="#737380"/>
<path d="M204.991 420.211C204.991 415.696 207.367 413 210.66 413C213.953 413 216.342 415.696 216.342 420.211C216.342 424.725 213.941 427.422 210.66 427.422C207.367 427.422 204.991 424.725 204.991 420.211ZM214.846 420.211C214.846 416.424 213.136 414.329 210.66 414.329C208.184 414.329 206.474 416.411 206.474 420.211C206.474 423.998 208.184 426.092 210.66 426.092C213.136 426.092 214.846 423.998 214.846 420.211Z" fill="#737380"/>
<path d="M218.428 420.211C218.428 415.696 220.804 413 224.097 413C227.391 413 229.779 415.696 229.779 420.211C229.779 424.725 227.378 427.422 224.097 427.422C220.804 427.422 218.428 424.725 218.428 420.211ZM228.283 420.211C228.283 416.424 226.574 414.329 224.097 414.329C221.621 414.329 219.911 416.411 219.911 420.211C219.911 423.998 221.621 426.092 224.097 426.092C226.574 426.092 228.283 423.998 228.283 420.211Z" fill="#737380"/>
<path d="M235.775 413.113V427.309H234.317V414.417H230.961V413.126H235.775V413.113Z" fill="#737380"/>
<path d="M239.157 420.211C239.157 415.696 241.532 413 244.826 413C248.119 413 250.508 415.696 250.508 420.211C250.508 424.725 248.107 427.422 244.826 427.422C241.532 427.422 239.157 424.725 239.157 420.211ZM249.012 420.211C249.012 416.424 247.302 414.329 244.826 414.329C242.349 414.329 240.64 416.411 240.64 420.211C240.64 423.998 242.349 426.092 244.826 426.092C247.302 426.092 249.012 423.998 249.012 420.211Z" fill="#737380"/>
<path d="M256.503 413.113V427.309H255.045V414.417H251.689V413.126H256.503V413.113Z" fill="#737380"/>
<path d="M191 440.339C191 435.824 193.376 433.128 196.669 433.128C199.963 433.128 202.351 435.824 202.351 440.339C202.351 444.853 199.95 447.549 196.669 447.549C193.376 447.549 191 444.853 191 440.339ZM200.855 440.339C200.855 436.551 199.145 434.457 196.669 434.457C194.193 434.457 192.483 436.539 192.483 440.339C192.483 444.126 194.193 446.22 196.669 446.22C199.145 446.208 200.855 444.126 200.855 440.339Z" fill="#737380"/>
<path d="M204.438 440.339C204.438 435.824 206.813 433.128 210.107 433.128C213.4 433.128 215.789 435.824 215.789 440.339C215.789 444.853 213.388 447.549 210.107 447.549C206.813 447.549 204.438 444.853 204.438 440.339ZM214.293 440.339C214.293 436.551 212.583 434.457 210.107 434.457C207.63 434.457 205.921 436.539 205.921 440.339C205.921 444.126 207.63 446.22 210.107 446.22C212.583 446.22 214.293 444.126 214.293 440.339Z" fill="#737380"/>
<path d="M221.784 433.241V447.424H220.326V434.533H216.97V433.241H221.784Z" fill="#737380"/>
<path d="M225.166 440.339C225.166 435.824 227.542 433.128 230.835 433.128C234.128 433.128 236.517 435.824 236.517 440.339C236.517 444.853 234.116 447.549 230.835 447.549C227.542 447.549 225.166 444.853 225.166 440.339ZM235.021 440.339C235.021 436.551 233.311 434.457 230.835 434.457C228.359 434.457 226.649 436.539 226.649 440.339C226.649 444.126 228.359 446.22 230.835 446.22C233.311 446.208 235.021 444.126 235.021 440.339Z" fill="#737380"/>
<path d="M242.513 433.241V447.424H241.055V434.533H237.698V433.241H242.513Z" fill="#737380"/>
<path d="M249.841 433.241V447.424H248.383V434.533H245.027V433.241H249.841Z" fill="#737380"/>
<path d="M253.222 440.339C253.222 435.824 255.598 433.128 258.892 433.128C262.185 433.128 264.573 435.824 264.573 440.339C264.573 444.853 262.172 447.549 258.892 447.549C255.598 447.549 253.222 444.853 253.222 440.339ZM263.078 440.339C263.078 436.551 261.368 434.457 258.892 434.457C256.415 434.457 254.706 436.539 254.706 440.339C254.706 444.126 256.415 446.22 258.892 446.22C261.368 446.208 263.078 444.126 263.078 440.339Z" fill="#737380"/>
<path d="M270.569 433.241V447.424H269.111V434.533H265.755V433.241H270.569Z" fill="#737380"/>
<path d="M204.991 459.789C204.991 455.275 207.367 452.578 210.66 452.578C213.953 452.578 216.342 455.275 216.342 459.789C216.342 464.304 213.941 467 210.66 467C207.367 467.013 204.991 464.316 204.991 459.789ZM214.846 459.789C214.846 456.002 213.136 453.908 210.66 453.908C208.184 453.908 206.474 455.989 206.474 459.789C206.474 463.576 208.184 465.671 210.66 465.671C213.136 465.671 214.846 463.576 214.846 459.789Z" fill="#737380"/>
<path d="M222.338 452.704V466.887H220.879V453.996H217.523V452.704H222.338Z" fill="#737380"/>
<path d="M229.666 452.704V466.887H228.208V453.996H224.852V452.704H229.666Z" fill="#737380"/>
<path d="M236.995 452.704V466.887H235.536V453.996H232.18V452.704H236.995Z" fill="#737380"/>
<path d="M240.376 459.789C240.376 455.275 242.752 452.578 246.045 452.578C249.338 452.578 251.727 455.275 251.727 459.789C251.727 464.304 249.326 467 246.045 467C242.764 467.013 240.376 464.316 240.376 459.789ZM250.231 459.789C250.231 456.002 248.521 453.908 246.045 453.908C243.569 453.908 241.859 455.989 241.859 459.789C241.859 463.576 243.569 465.671 246.045 465.671C248.534 465.671 250.231 463.576 250.231 459.789Z" fill="#737380"/>
<path d="M257.723 452.704V466.887H256.265V453.996H252.908V452.704H257.723Z" fill="#737380"/>
<path d="M248.062 198H246.555V192.742H240.82V198H239.32V186.625H240.82V191.516H246.555V186.625H248.062V198Z" fill="#323238"/>
<path d="M258.352 187.859H254.695V198H253.203V187.859H249.555V186.625H258.352V187.859Z" fill="#323238"/>
<path d="M261.977 186.625L265.695 195.906L269.414 186.625H271.359V198H269.859V193.57L270 188.789L266.266 198H265.117L261.391 188.812L261.539 193.57V198H260.039V186.625H261.977Z" fill="#323238"/>
<path d="M275.516 196.773H280.906V198H274.008V186.625H275.516V196.773Z" fill="#323238"/>
<path d="M589.688 508.391C589.547 509.594 589.102 510.523 588.352 511.18C587.607 511.831 586.615 512.156 585.375 512.156C584.031 512.156 582.953 511.674 582.141 510.711C581.333 509.747 580.93 508.458 580.93 506.844V505.75C580.93 504.693 581.117 503.763 581.492 502.961C581.872 502.159 582.409 501.544 583.102 501.117C583.794 500.685 584.596 500.469 585.508 500.469C586.716 500.469 587.685 500.807 588.414 501.484C589.143 502.156 589.568 503.089 589.688 504.281H588.18C588.049 503.375 587.766 502.719 587.328 502.312C586.896 501.906 586.289 501.703 585.508 501.703C584.549 501.703 583.797 502.057 583.25 502.766C582.708 503.474 582.438 504.482 582.438 505.789V506.891C582.438 508.125 582.695 509.107 583.211 509.836C583.727 510.565 584.448 510.93 585.375 510.93C586.208 510.93 586.846 510.742 587.289 510.367C587.737 509.987 588.034 509.328 588.18 508.391H589.688Z" fill="#323238"/>
<path d="M595.094 506.93C593.807 506.56 592.87 506.107 592.281 505.57C591.698 505.029 591.406 504.362 591.406 503.57C591.406 502.674 591.763 501.935 592.477 501.352C593.195 500.763 594.128 500.469 595.273 500.469C596.055 500.469 596.75 500.62 597.359 500.922C597.974 501.224 598.448 501.641 598.781 502.172C599.12 502.703 599.289 503.284 599.289 503.914H597.781C597.781 503.227 597.562 502.688 597.125 502.297C596.688 501.901 596.07 501.703 595.273 501.703C594.534 501.703 593.956 501.867 593.539 502.195C593.128 502.518 592.922 502.969 592.922 503.547C592.922 504.01 593.117 504.404 593.508 504.727C593.904 505.044 594.573 505.336 595.516 505.602C596.464 505.867 597.203 506.161 597.734 506.484C598.271 506.802 598.667 507.174 598.922 507.602C599.182 508.029 599.312 508.531 599.312 509.109C599.312 510.031 598.953 510.771 598.234 511.328C597.516 511.88 596.555 512.156 595.352 512.156C594.57 512.156 593.841 512.008 593.164 511.711C592.487 511.409 591.964 510.997 591.594 510.477C591.229 509.956 591.047 509.365 591.047 508.703H592.555C592.555 509.391 592.807 509.935 593.312 510.336C593.823 510.732 594.503 510.93 595.352 510.93C596.143 510.93 596.75 510.768 597.172 510.445C597.594 510.122 597.805 509.682 597.805 509.125C597.805 508.568 597.609 508.138 597.219 507.836C596.828 507.529 596.12 507.227 595.094 506.93Z" fill="#323238"/>
<path d="M604.594 506.93C603.307 506.56 602.37 506.107 601.781 505.57C601.198 505.029 600.906 504.362 600.906 503.57C600.906 502.674 601.263 501.935 601.977 501.352C602.695 500.763 603.628 500.469 604.773 500.469C605.555 500.469 606.25 500.62 606.859 500.922C607.474 501.224 607.948 501.641 608.281 502.172C608.62 502.703 608.789 503.284 608.789 503.914H607.281C607.281 503.227 607.062 502.688 606.625 502.297C606.188 501.901 605.57 501.703 604.773 501.703C604.034 501.703 603.456 501.867 603.039 502.195C602.628 502.518 602.422 502.969 602.422 503.547C602.422 504.01 602.617 504.404 603.008 504.727C603.404 505.044 604.073 505.336 605.016 505.602C605.964 505.867 606.703 506.161 607.234 506.484C607.771 506.802 608.167 507.174 608.422 507.602C608.682 508.029 608.812 508.531 608.812 509.109C608.812 510.031 608.453 510.771 607.734 511.328C607.016 511.88 606.055 512.156 604.852 512.156C604.07 512.156 603.341 512.008 602.664 511.711C601.987 511.409 601.464 510.997 601.094 510.477C600.729 509.956 600.547 509.365 600.547 508.703H602.055C602.055 509.391 602.307 509.935 602.812 510.336C603.323 510.732 604.003 510.93 604.852 510.93C605.643 510.93 606.25 510.768 606.672 510.445C607.094 510.122 607.305 509.682 607.305 509.125C607.305 508.568 607.109 508.138 606.719 507.836C606.328 507.529 605.62 507.227 604.594 506.93Z" fill="#323238"/>
<path d="M204.086 671.625H205.594V679.68C205.594 680.768 205.266 681.62 204.609 682.234C203.958 682.849 203.089 683.156 202 683.156C200.87 683.156 199.99 682.867 199.359 682.289C198.729 681.711 198.414 680.901 198.414 679.859H199.914C199.914 680.51 200.091 681.018 200.445 681.383C200.805 681.747 201.323 681.93 202 681.93C202.62 681.93 203.12 681.734 203.5 681.344C203.885 680.953 204.081 680.406 204.086 679.703V671.625Z" fill="#323238"/>
<path d="M213.141 683C213.057 682.833 212.99 682.536 212.938 682.109C212.266 682.807 211.464 683.156 210.531 683.156C209.698 683.156 209.013 682.922 208.477 682.453C207.945 681.979 207.68 681.38 207.68 680.656C207.68 679.776 208.013 679.094 208.68 678.609C209.352 678.12 210.294 677.875 211.508 677.875H212.914V677.211C212.914 676.706 212.763 676.305 212.461 676.008C212.159 675.706 211.714 675.555 211.125 675.555C210.609 675.555 210.177 675.685 209.828 675.945C209.479 676.206 209.305 676.521 209.305 676.891H207.852C207.852 676.469 208 676.062 208.297 675.672C208.599 675.276 209.005 674.964 209.516 674.734C210.031 674.505 210.596 674.391 211.211 674.391C212.185 674.391 212.948 674.635 213.5 675.125C214.052 675.609 214.339 676.279 214.359 677.133V681.023C214.359 681.799 214.458 682.417 214.656 682.875V683H213.141ZM210.742 681.898C211.195 681.898 211.625 681.781 212.031 681.547C212.438 681.312 212.732 681.008 212.914 680.633V678.898H211.781C210.01 678.898 209.125 679.417 209.125 680.453C209.125 680.906 209.276 681.26 209.578 681.516C209.88 681.771 210.268 681.898 210.742 681.898Z" fill="#323238"/>
<path d="M219.289 681.039L221.383 674.547H222.859L219.828 683H218.727L215.664 674.547H217.141L219.289 681.039Z" fill="#323238"/>
<path d="M229.344 683C229.26 682.833 229.193 682.536 229.141 682.109C228.469 682.807 227.667 683.156 226.734 683.156C225.901 683.156 225.216 682.922 224.68 682.453C224.148 681.979 223.883 681.38 223.883 680.656C223.883 679.776 224.216 679.094 224.883 678.609C225.555 678.12 226.497 677.875 227.711 677.875H229.117V677.211C229.117 676.706 228.966 676.305 228.664 676.008C228.362 675.706 227.917 675.555 227.328 675.555C226.812 675.555 226.38 675.685 226.031 675.945C225.682 676.206 225.508 676.521 225.508 676.891H224.055C224.055 676.469 224.203 676.062 224.5 675.672C224.802 675.276 225.208 674.964 225.719 674.734C226.234 674.505 226.799 674.391 227.414 674.391C228.388 674.391 229.151 674.635 229.703 675.125C230.255 675.609 230.542 676.279 230.562 677.133V681.023C230.562 681.799 230.661 682.417 230.859 682.875V683H229.344ZM226.945 681.898C227.398 681.898 227.828 681.781 228.234 681.547C228.641 681.312 228.935 681.008 229.117 680.633V678.898H227.984C226.214 678.898 225.328 679.417 225.328 680.453C225.328 680.906 225.479 681.26 225.781 681.516C226.083 681.771 226.471 681.898 226.945 681.898Z" fill="#323238"/>
<path d="M236.406 677.93C235.12 677.56 234.182 677.107 233.594 676.57C233.01 676.029 232.719 675.362 232.719 674.57C232.719 673.674 233.076 672.935 233.789 672.352C234.508 671.763 235.44 671.469 236.586 671.469C237.367 671.469 238.062 671.62 238.672 671.922C239.286 672.224 239.76 672.641 240.094 673.172C240.432 673.703 240.602 674.284 240.602 674.914H239.094C239.094 674.227 238.875 673.688 238.438 673.297C238 672.901 237.383 672.703 236.586 672.703C235.846 672.703 235.268 672.867 234.852 673.195C234.44 673.518 234.234 673.969 234.234 674.547C234.234 675.01 234.43 675.404 234.82 675.727C235.216 676.044 235.885 676.336 236.828 676.602C237.776 676.867 238.516 677.161 239.047 677.484C239.583 677.802 239.979 678.174 240.234 678.602C240.495 679.029 240.625 679.531 240.625 680.109C240.625 681.031 240.266 681.771 239.547 682.328C238.828 682.88 237.867 683.156 236.664 683.156C235.883 683.156 235.154 683.008 234.477 682.711C233.799 682.409 233.276 681.997 232.906 681.477C232.542 680.956 232.359 680.365 232.359 679.703H233.867C233.867 680.391 234.12 680.935 234.625 681.336C235.135 681.732 235.815 681.93 236.664 681.93C237.456 681.93 238.062 681.768 238.484 681.445C238.906 681.122 239.117 680.682 239.117 680.125C239.117 679.568 238.922 679.138 238.531 678.836C238.141 678.529 237.432 678.227 236.406 677.93Z" fill="#323238"/>
<path d="M245.719 681.977C246.234 681.977 246.685 681.82 247.07 681.508C247.456 681.195 247.669 680.805 247.711 680.336H249.078C249.052 680.82 248.885 681.281 248.578 681.719C248.271 682.156 247.859 682.505 247.344 682.766C246.833 683.026 246.292 683.156 245.719 683.156C244.568 683.156 243.651 682.773 242.969 682.008C242.292 681.237 241.953 680.185 241.953 678.852V678.609C241.953 677.786 242.104 677.055 242.406 676.414C242.708 675.773 243.141 675.276 243.703 674.922C244.271 674.568 244.94 674.391 245.711 674.391C246.659 674.391 247.445 674.674 248.07 675.242C248.701 675.81 249.036 676.547 249.078 677.453H247.711C247.669 676.906 247.461 676.458 247.086 676.109C246.716 675.755 246.258 675.578 245.711 675.578C244.977 675.578 244.406 675.844 244 676.375C243.599 676.901 243.398 677.664 243.398 678.664V678.938C243.398 679.911 243.599 680.661 244 681.188C244.401 681.714 244.974 681.977 245.719 681.977Z" fill="#323238"/>
<path d="M254.789 675.844C254.57 675.807 254.333 675.789 254.078 675.789C253.13 675.789 252.487 676.193 252.148 677V683H250.703V674.547H252.109L252.133 675.523C252.607 674.768 253.279 674.391 254.148 674.391C254.43 674.391 254.643 674.427 254.789 674.5V675.844Z" fill="#323238"/>
<path d="M257.695 683H256.25V674.547H257.695V683ZM256.133 672.305C256.133 672.07 256.203 671.872 256.344 671.711C256.49 671.549 256.703 671.469 256.984 671.469C257.266 671.469 257.479 671.549 257.625 671.711C257.771 671.872 257.844 672.07 257.844 672.305C257.844 672.539 257.771 672.734 257.625 672.891C257.479 673.047 257.266 673.125 256.984 673.125C256.703 673.125 256.49 673.047 256.344 672.891C256.203 672.734 256.133 672.539 256.133 672.305Z" fill="#323238"/>
<path d="M267.156 678.867C267.156 680.154 266.862 681.19 266.273 681.977C265.685 682.763 264.888 683.156 263.883 683.156C262.857 683.156 262.049 682.831 261.461 682.18V686.25H260.016V674.547H261.336L261.406 675.484C261.995 674.755 262.812 674.391 263.859 674.391C264.875 674.391 265.677 674.773 266.266 675.539C266.859 676.305 267.156 677.37 267.156 678.734V678.867ZM265.711 678.703C265.711 677.75 265.508 676.997 265.102 676.445C264.695 675.893 264.138 675.617 263.43 675.617C262.555 675.617 261.898 676.005 261.461 676.781V680.82C261.893 681.591 262.555 681.977 263.445 681.977C264.138 681.977 264.688 681.703 265.094 681.156C265.505 680.604 265.711 679.786 265.711 678.703Z" fill="#323238"/>
<path d="M270.961 672.5V674.547H272.539V675.664H270.961V680.906C270.961 681.245 271.031 681.5 271.172 681.672C271.312 681.839 271.552 681.922 271.891 681.922C272.057 681.922 272.286 681.891 272.578 681.828V683C272.198 683.104 271.828 683.156 271.469 683.156C270.823 683.156 270.336 682.961 270.008 682.57C269.68 682.18 269.516 681.625 269.516 680.906V675.664H267.977V674.547H269.516V672.5H270.961Z" fill="#323238"/>
</svg>
