<svg width="571" height="438" viewBox="0 0 571 438" fill="none" xmlns="http://www.w3.org/2000/svg">
<path d="M307.71 414.441H307.376C306.429 414.441 305.497 414.441 304.565 414.413L304.857 394.373C305.692 394.387 306.541 394.387 307.376 394.387H307.71V414.441ZM314.765 414.302L314 394.276C314.835 394.248 315.67 394.206 316.505 394.164L317.591 414.191C316.658 414.219 315.712 414.26 314.765 414.302ZM297.523 414.191C296.59 414.135 295.658 414.079 294.725 414.024L296.048 394.025C296.883 394.081 297.731 394.137 298.58 394.178L297.523 414.191ZM324.632 413.662L322.781 393.705C323.63 393.622 324.465 393.538 325.3 393.455L327.416 413.398C326.497 413.481 325.565 413.565 324.632 413.662ZM287.698 413.411C286.751 413.314 285.819 413.203 284.886 413.091L287.294 393.19C288.129 393.288 288.95 393.385 289.785 393.469L287.698 413.411ZM334.43 412.493L331.521 392.661C332.356 392.536 333.191 392.411 334.026 392.272L337.213 412.061C336.294 412.215 335.362 412.354 334.43 412.493ZM277.9 412.117C276.968 411.964 276.035 411.811 275.103 411.644L278.568 391.896C279.389 392.035 280.21 392.174 281.031 392.313L277.9 412.117ZM344.144 410.823L340.233 391.158C341.054 390.991 341.875 390.824 342.682 390.643L346.913 410.238C345.994 410.447 345.062 410.628 344.144 410.823ZM268.186 410.308C267.268 410.113 266.349 409.904 265.431 409.696L269.926 390.156C270.747 390.351 271.568 390.532 272.389 390.699L268.186 410.308ZM353.788 408.624L348.792 389.21C349.613 389.001 350.42 388.792 351.227 388.57L356.501 407.914C355.611 408.151 354.692 408.387 353.788 408.624ZM258.598 407.998C257.679 407.747 256.775 407.497 255.87 407.232L261.409 387.957C262.216 388.194 263.009 388.417 263.831 388.625L258.598 407.998ZM363.279 405.91L357.281 386.775C358.088 386.524 358.881 386.274 359.674 386.009L365.965 405.047C365.074 405.34 364.17 405.632 363.279 405.91ZM249.135 405.159C248.244 404.867 247.353 404.56 246.476 404.268L252.989 385.299C253.797 385.578 254.604 385.842 255.411 386.107L249.135 405.159ZM372.617 402.709L365.589 383.936C366.382 383.643 367.162 383.337 367.941 383.031L375.233 401.707C374.37 402.041 373.494 402.375 372.617 402.709ZM239.81 401.819C238.934 401.471 238.057 401.123 237.18 400.775L244.723 382.196C245.502 382.516 246.282 382.822 247.075 383.128L239.81 401.819ZM381.746 399.021L373.772 380.623C374.537 380.289 375.289 379.955 376.054 379.607L384.321 397.866C383.472 398.27 382.609 398.646 381.746 399.021ZM230.695 397.992C229.832 397.602 228.969 397.212 228.12 396.809L236.651 378.661C237.417 379.023 238.168 379.371 238.948 379.719L230.695 397.992ZM390.681 394.86L381.718 376.935C382.47 376.56 383.208 376.184 383.959 375.794L393.2 393.594C392.351 394.011 391.516 394.429 390.681 394.86ZM221.788 393.677C220.953 393.246 220.132 392.814 219.297 392.369L228.747 374.695C229.498 375.098 230.236 375.488 230.987 375.878L221.788 393.677ZM399.365 390.226L389.47 372.788C390.208 372.371 390.931 371.953 391.655 371.536L401.8 388.82C400.993 389.293 400.186 389.767 399.365 390.226ZM213.132 388.918C212.325 388.445 211.518 387.957 210.711 387.47L221.106 370.325C221.83 370.756 222.554 371.188 223.277 371.619L213.132 388.918ZM407.798 385.146L397.013 368.251C397.723 367.806 398.418 367.347 399.114 366.887L410.164 383.615C409.385 384.13 408.592 384.631 407.798 385.146ZM204.727 383.699C203.947 383.184 203.168 382.655 202.388 382.126L213.675 365.551C214.371 366.025 215.067 366.498 215.776 366.957L204.727 383.699ZM415.981 379.607L404.291 363.325C404.973 362.838 405.669 362.337 406.351 361.836L418.25 377.979C417.484 378.522 416.733 379.065 415.981 379.607ZM196.627 378.049C195.875 377.492 195.124 376.935 194.373 376.365L206.494 360.402C207.162 360.917 207.844 361.418 208.526 361.919L196.627 378.049ZM423.816 373.679L411.333 357.994C411.987 357.48 412.627 356.951 413.281 356.422L426.029 371.897C425.291 372.496 424.554 373.094 423.816 373.679ZM188.848 371.981C188.124 371.382 187.4 370.784 186.677 370.172L199.647 354.877C200.287 355.42 200.927 355.949 201.581 356.491L188.848 371.981ZM431.373 367.333L418.055 352.344C418.681 351.788 419.307 351.231 419.934 350.66L433.461 365.454C432.779 366.08 432.083 366.706 431.373 367.333ZM181.374 365.51C180.679 364.883 179.997 364.243 179.315 363.603L193.036 348.99C193.649 349.575 194.275 350.145 194.901 350.716L181.374 365.51ZM438.568 360.597L424.512 346.304C425.111 345.72 425.695 345.121 426.28 344.537L440.572 358.593C439.918 359.275 439.25 359.943 438.568 360.597ZM174.277 358.69C173.609 358.022 172.955 357.34 172.301 356.658L186.802 342.811C187.372 343.41 187.957 344.008 188.541 344.606L174.277 358.69ZM445.415 353.485L430.622 339.958C431.192 339.346 431.749 338.72 432.305 338.093L447.308 351.398C446.681 352.094 446.055 352.79 445.415 353.485ZM167.541 351.481C166.915 350.786 166.303 350.076 165.69 349.366L180.873 336.27C181.416 336.91 181.973 337.537 182.529 338.163L167.541 351.481ZM451.886 346.04L436.411 333.292C436.94 332.638 437.469 331.998 437.997 331.344L453.668 343.841C453.069 344.579 452.485 345.316 451.886 346.04ZM161.181 343.938C160.597 343.201 160.012 342.463 159.428 341.712L175.293 329.465C175.808 330.119 176.323 330.773 176.838 331.427L161.181 343.938ZM457.954 338.246L441.825 326.348C442.325 325.666 442.813 324.984 443.314 324.302L459.624 335.964C459.067 336.73 458.511 337.481 457.954 338.246ZM155.239 336.075C154.696 335.31 154.153 334.545 153.625 333.779L170.088 322.339C170.575 323.035 171.048 323.717 171.535 324.399L155.239 336.075ZM463.604 330.161L446.876 319.111C447.335 318.415 447.795 317.719 448.24 317.009L465.149 327.781C464.634 328.574 464.119 329.367 463.604 330.161ZM149.714 327.906C149.213 327.113 148.712 326.32 148.225 325.526L165.273 314.977C165.718 315.687 166.163 316.397 166.609 317.107L149.714 327.906ZM468.837 321.755L451.538 311.623C451.97 310.9 452.387 310.162 452.805 309.425L470.242 319.319C469.769 320.127 469.31 320.948 468.837 321.755ZM144.634 319.486C144.175 318.665 143.716 317.844 143.257 317.023L160.833 307.379C161.237 308.116 161.641 308.84 162.058 309.564L144.634 319.486ZM473.596 313.099L455.797 303.872C456.186 303.12 456.562 302.383 456.938 301.631L474.877 310.58C474.459 311.429 474.028 312.264 473.596 313.099ZM139.986 310.802C139.569 309.967 139.151 309.118 138.748 308.27L156.811 299.571C157.173 300.323 157.535 301.074 157.911 301.812L139.986 310.802ZM477.91 304.192L459.638 295.953C459.986 295.188 460.334 294.408 460.668 293.643L479.065 301.617C478.69 302.48 478.3 303.329 477.91 304.192ZM135.825 301.868C135.449 301.005 135.088 300.142 134.726 299.279L153.221 291.555C153.541 292.321 153.875 293.1 154.209 293.866L135.825 301.868ZM481.751 295.076L463.061 287.798C463.367 287.018 463.674 286.225 463.966 285.432L482.753 292.432C482.419 293.323 482.085 294.2 481.751 295.076ZM132.137 292.752C131.803 291.875 131.483 290.985 131.163 290.094L150.048 283.372C150.326 284.166 150.619 284.945 150.911 285.724L132.137 292.752ZM485.091 285.738L466.039 279.489C466.304 278.682 466.554 277.875 466.819 277.068L485.954 283.038C485.676 283.957 485.398 284.847 485.091 285.738ZM128.922 283.4C128.644 282.509 128.366 281.619 128.101 280.728L147.306 274.966C147.557 275.774 147.793 276.595 148.058 277.402L128.922 283.4ZM487.93 276.302L468.586 271.042C468.809 270.235 469.018 269.428 469.226 268.62L488.654 273.561C488.417 274.465 488.181 275.384 487.93 276.302ZM126.209 273.909C125.972 273.004 125.749 272.086 125.527 271.167L145.024 266.491C145.219 267.312 145.428 268.119 145.636 268.927L126.209 273.909ZM490.254 266.686L470.646 262.483C470.827 261.662 470.994 260.841 471.161 260.02L490.825 263.93C490.644 264.849 490.449 265.767 490.254 266.686ZM124.01 264.292C123.829 263.374 123.648 262.441 123.481 261.523L143.201 257.877C143.354 258.698 143.507 259.533 143.674 260.354L124.01 264.292ZM492.064 257L472.274 253.813C472.399 252.992 472.525 252.171 472.65 251.336L492.495 254.189C492.356 255.135 492.217 256.067 492.064 257ZM122.326 254.55C122.187 253.618 122.062 252.699 121.936 251.767L141.809 249.151C141.921 249.986 142.032 250.821 142.157 251.656L122.326 254.55ZM493.372 247.202L473.429 245.087C473.513 244.252 473.596 243.431 473.68 242.596L493.65 244.391C493.553 245.324 493.469 246.27 493.372 247.202ZM121.157 244.767C121.073 243.821 120.99 242.888 120.92 241.942L140.905 240.411C140.96 241.246 141.044 242.081 141.113 242.902L121.157 244.767ZM494.151 237.349L474.125 236.319C474.167 235.47 474.209 234.635 474.236 233.786L494.262 234.552C494.235 235.484 494.193 236.417 494.151 237.349ZM120.517 234.914C120.475 233.981 120.447 233.049 120.419 232.103L140.459 231.602C140.473 232.437 140.501 233.285 140.543 234.12L120.517 234.914ZM474.362 227.496C474.362 226.578 474.362 225.784 474.348 224.977L494.388 224.671C494.402 225.589 494.416 226.522 494.402 227.44L474.362 227.496ZM140.418 225.297L120.378 225.061C120.392 224.114 120.405 223.182 120.433 222.249L140.473 222.778C140.445 223.613 140.432 224.462 140.418 225.297ZM474.125 218.687C474.083 217.838 474.028 217.003 473.972 216.154L493.97 214.832C494.026 215.764 494.082 216.697 494.137 217.629L474.125 218.687ZM140.766 216.502L120.753 215.207C120.809 214.275 120.879 213.329 120.962 212.396L140.946 213.983C140.877 214.818 140.821 215.653 140.766 216.502ZM473.443 209.891C473.36 209.056 473.262 208.221 473.165 207.386L493.066 205.006C493.177 205.939 493.288 206.871 493.386 207.818L473.443 209.891ZM141.559 207.72L121.644 205.368C121.755 204.436 121.867 203.503 121.992 202.571L141.865 205.215C141.768 206.064 141.67 206.885 141.559 207.72ZM472.302 201.151C472.177 200.316 472.038 199.495 471.884 198.674L491.632 195.237C491.799 196.155 491.952 197.088 492.091 198.02L472.302 201.151ZM142.825 199.008L123.064 195.599C123.217 194.666 123.384 193.748 123.565 192.829L143.271 196.517C143.117 197.352 142.964 198.173 142.825 199.008ZM470.688 192.509C470.507 191.688 470.326 190.853 470.145 190.032L489.684 185.551C489.893 186.469 490.101 187.374 490.296 188.292L470.688 192.509ZM144.551 190.366L124.998 185.926C125.207 185.008 125.429 184.075 125.652 183.157L145.121 187.93C144.927 188.738 144.732 189.559 144.551 190.366ZM468.614 183.936C468.391 183.129 468.169 182.308 467.932 181.501L487.207 176.004C487.457 176.908 487.708 177.799 487.958 178.704L468.614 183.936ZM146.736 181.835L127.447 176.365C127.698 175.461 127.962 174.556 128.241 173.652L147.446 179.413C147.195 180.22 146.958 181.028 146.736 181.835ZM466.095 175.503C465.831 174.709 465.566 173.902 465.288 173.109L484.242 166.568C484.549 167.459 484.841 168.349 485.147 169.24L466.095 175.503ZM149.366 173.415L130.398 166.916C130.704 166.025 131.01 165.135 131.33 164.244L150.201 171.021C149.923 171.815 149.644 172.608 149.366 173.415ZM463.131 167.208C462.825 166.429 462.519 165.649 462.199 164.87L480.777 157.341C481.125 158.204 481.473 159.081 481.807 159.944L463.131 167.208ZM152.456 165.135L133.863 157.633C134.211 156.757 134.573 155.894 134.934 155.031L153.416 162.81C153.096 163.576 152.776 164.355 152.456 165.135ZM459.735 159.109C459.387 158.343 459.039 157.592 458.691 156.826L476.853 148.323C477.256 149.172 477.646 150.021 478.022 150.884L459.735 159.109ZM155.976 157.035L137.801 148.56C138.205 147.697 138.608 146.848 139.026 145.985L157.048 154.767C156.7 155.518 156.338 156.27 155.976 157.035ZM455.922 151.19C455.532 150.438 455.143 149.701 454.753 148.963L472.441 139.514C472.886 140.335 473.318 141.17 473.749 142.005L455.922 151.19ZM159.929 149.144L142.227 139.722C142.672 138.887 143.117 138.066 143.577 137.245L161.126 146.931C160.722 147.655 160.318 148.393 159.929 149.144ZM451.677 143.48C451.26 142.756 450.829 142.046 450.397 141.323L467.556 130.941C468.043 131.748 468.517 132.555 469.004 133.362L451.677 143.48ZM164.285 141.476L147.112 131.122C147.599 130.315 148.086 129.521 148.587 128.714L165.593 139.319C165.148 140.029 164.716 140.752 164.285 141.476ZM447.057 136.007C446.598 135.311 446.125 134.601 445.666 133.919L462.254 122.66C462.783 123.44 463.298 124.219 463.813 124.998L447.057 136.007ZM169.03 134.044L152.442 122.799C152.97 122.02 153.499 121.255 154.028 120.489L170.478 131.943C169.991 132.639 169.503 133.335 169.03 134.044ZM442.019 128.77C441.518 128.102 441.017 127.42 440.516 126.752L456.493 114.644C457.063 115.396 457.62 116.147 458.177 116.899L442.019 128.77ZM174.166 126.863L158.189 114.756C158.76 114.004 159.33 113.266 159.901 112.529L175.71 124.859C175.195 125.527 174.68 126.195 174.166 126.863ZM436.634 121.825C436.105 121.171 435.562 120.531 435.019 119.891L450.341 106.962C450.94 107.672 451.538 108.396 452.137 109.119L436.634 121.825ZM179.677 119.974L164.34 107.059C164.953 106.336 165.565 105.626 166.177 104.916L181.305 118.082C180.762 118.694 180.219 119.334 179.677 119.974ZM430.872 115.145C430.301 114.519 429.745 113.907 429.16 113.294L443.787 99.5861C444.427 100.268 445.067 100.964 445.707 101.66L430.872 115.145ZM185.535 113.378L170.895 99.6835C171.535 99.0016 172.189 98.3197 172.843 97.6378L187.275 111.569C186.691 112.153 186.106 112.765 185.535 113.378ZM424.763 108.785C424.164 108.201 423.566 107.616 422.967 107.032L436.842 92.5581C437.524 93.2122 438.192 93.8663 438.86 94.5343L424.763 108.785ZM191.728 107.101L177.84 92.6416C178.508 91.9875 179.189 91.3473 179.885 90.7072L193.565 105.362C192.939 105.946 192.327 106.517 191.728 107.101ZM418.361 102.759C417.735 102.203 417.095 101.646 416.454 101.089L429.564 85.9198C430.274 86.5321 430.969 87.1445 431.679 87.7707L418.361 102.759ZM198.241 101.159L185.118 86.0033C185.828 85.3909 186.551 84.7786 187.261 84.1662L200.148 99.5305C199.508 100.073 198.868 100.616 198.241 101.159ZM411.598 97.0533C410.943 96.5244 410.289 96.0095 409.621 95.4946L421.924 79.6711C422.661 80.2556 423.413 80.8262 424.136 81.4246L411.598 97.0533ZM205.047 95.5641L192.73 79.7407C193.468 79.1562 194.219 78.5856 194.985 78.015L207.037 94.0333C206.369 94.5482 205.701 95.0631 205.047 95.5641ZM404.584 91.737C403.902 91.2499 403.206 90.7628 402.51 90.2758L413.963 73.826C414.729 74.3548 415.494 74.8976 416.26 75.4543L404.584 91.737ZM212.13 90.3453L200.663 73.8956C201.428 73.3528 202.208 72.824 202.987 72.3091L214.204 88.9258C213.508 89.399 212.826 89.8721 212.13 90.3453ZM397.277 86.7687C396.568 86.3094 395.858 85.8641 395.148 85.4188L405.725 68.3845C406.518 68.8855 407.325 69.3865 408.118 69.8875L397.277 86.7687ZM219.492 85.5023L208.901 68.4819C209.695 67.9809 210.502 67.4938 211.323 67.0068L221.635 84.208C220.898 84.6394 220.188 85.0708 219.492 85.5023ZM389.734 82.204C389.011 81.7865 388.273 81.3829 387.536 80.9793L397.18 63.4023C398.015 63.8615 398.836 64.3208 399.657 64.78L389.734 82.204ZM227.077 81.0628L217.391 63.4997C218.212 63.0544 219.033 62.5951 219.868 62.1637L229.275 79.8659C228.538 80.2556 227.8 80.6592 227.077 81.0628ZM381.941 78.0428C381.19 77.6671 380.438 77.2913 379.687 76.9295L388.398 58.8654C389.247 59.2829 390.096 59.6865 390.945 60.1179L381.941 78.0428ZM234.884 77.0269L226.144 58.9767C226.979 58.5731 227.828 58.1695 228.677 57.7799L237.152 75.9414C236.401 76.3032 235.635 76.6511 234.884 77.0269ZM373.953 74.2992C373.188 73.9652 372.408 73.6312 371.629 73.3111L379.367 54.8156C380.243 55.1774 381.106 55.5532 381.969 55.9289L373.953 74.2992ZM242.886 73.4085L235.12 54.9269C235.983 54.5651 236.846 54.2032 237.709 53.8553L245.21 72.4482C244.431 72.7683 243.651 73.0745 242.886 73.4085ZM365.77 70.9731C364.991 70.6808 364.197 70.3885 363.404 70.1102L370.14 51.225C371.03 51.5451 371.921 51.8652 372.812 52.1992L365.77 70.9731ZM251.055 70.2215L244.278 51.3503C245.154 51.0302 246.045 50.724 246.936 50.4178L253.421 69.3865C252.642 69.651 251.848 69.9293 251.055 70.2215ZM357.42 68.1062C356.613 67.8557 355.806 67.6052 354.999 67.3686L360.732 48.1633C361.637 48.4277 362.541 48.7061 363.432 48.9983L357.42 68.1062ZM259.433 67.466L253.657 48.2607C254.562 47.9963 255.453 47.7319 256.357 47.4675L261.84 66.7562C261.047 66.9789 260.24 67.2155 259.433 67.466ZM348.945 65.6846C348.124 65.4759 347.316 65.2671 346.495 65.0723L351.199 45.5887C352.104 45.8114 353.022 46.034 353.927 46.2706L348.945 65.6846ZM267.936 65.1558L263.204 45.6722C264.123 45.4495 265.027 45.2269 265.946 45.032L270.385 64.5852C269.564 64.7661 268.743 64.961 267.936 65.1558ZM340.344 63.7085C339.523 63.5414 338.702 63.3884 337.881 63.2353L341.527 43.5151C342.46 43.6821 343.378 43.863 344.311 44.0578L340.344 63.7085ZM276.536 63.3049L272.848 43.5986C273.767 43.4316 274.699 43.2646 275.632 43.0976L279.014 62.8595C278.179 62.9987 277.357 63.1518 276.536 63.3049ZM331.688 62.2054C330.853 62.0802 330.018 61.9688 329.183 61.8575L331.799 41.9842C332.732 42.1095 333.65 42.2347 334.583 42.3739L331.688 62.2054ZM285.234 61.8993L282.59 42.026C283.523 41.9007 284.469 41.7894 285.401 41.6781L287.725 61.5931C286.89 61.6905 286.069 61.7879 285.234 61.8993ZM322.948 61.1617C322.113 61.0782 321.265 61.0086 320.43 60.9529L321.988 40.9683C322.921 41.0379 323.853 41.1214 324.785 41.2049L322.948 61.1617ZM294.002 60.9807L292.415 40.9961C293.348 40.9265 294.294 40.857 295.226 40.7874L296.521 60.7998C295.672 60.8555 294.837 60.9112 294.002 60.9807ZM314.139 60.5772C313.304 60.5493 312.455 60.5215 311.62 60.4937L312.121 40.4534C313.068 40.4812 314 40.509 314.932 40.5508L314.139 60.5772ZM302.797 60.5076L302.268 40.4673C303.201 40.4394 304.133 40.4255 305.066 40.4116L305.33 60.4519C304.481 60.4658 303.632 60.4797 302.797 60.5076Z" fill="#29292E"/>
<path opacity="0.55" d="M307.485 318.603C257.258 318.603 216.402 277.746 216.402 227.519C216.402 177.292 257.258 136.436 307.485 136.436C357.712 136.436 398.569 177.292 398.569 227.519C398.569 277.746 357.697 318.603 307.485 318.603ZM307.485 137.93C258.075 137.93 217.881 178.124 217.881 227.534C217.881 276.945 258.075 317.138 307.485 317.138C356.895 317.138 397.089 276.945 397.089 227.534C397.074 178.124 356.88 137.93 307.485 137.93Z" fill="#202024"/>
<path d="M155.274 28.8087H154.106V24.7371H149.665V28.8087H148.504V20H149.665V23.7872H154.106V20H155.274V28.8087Z" fill="#323238"/>
<path d="M163.241 20.9559H160.41V28.8087H159.254V20.9559H156.429V20H163.241V20.9559Z" fill="#323238"/>
<path d="M166.048 20L168.928 27.1873L171.808 20H173.314V28.8087H172.153V25.3784L172.262 21.6758L169.37 28.8087H168.481L165.595 21.694L165.71 25.3784V28.8087H164.548V20H166.048Z" fill="#323238"/>
<path d="M176.533 27.8588H180.707V28.8087H175.365V20H176.533V27.8588Z" fill="#323238"/>
<path d="M433.739 190.318C433.631 191.25 433.286 191.97 432.705 192.478C432.128 192.982 431.36 193.234 430.4 193.234C429.359 193.234 428.524 192.861 427.895 192.115C427.27 191.369 426.957 190.37 426.957 189.12V188.273C426.957 187.454 427.103 186.734 427.393 186.113C427.688 185.492 428.103 185.016 428.639 184.685C429.176 184.351 429.797 184.183 430.503 184.183C431.438 184.183 432.189 184.445 432.753 184.97C433.318 185.49 433.647 186.212 433.739 187.136H432.572C432.471 186.434 432.251 185.926 431.912 185.611C431.578 185.296 431.108 185.139 430.503 185.139C429.761 185.139 429.178 185.413 428.754 185.962C428.335 186.51 428.125 187.291 428.125 188.303V189.156C428.125 190.112 428.325 190.872 428.724 191.437C429.123 192.002 429.682 192.284 430.4 192.284C431.045 192.284 431.539 192.139 431.882 191.849C432.229 191.554 432.459 191.044 432.572 190.318H433.739Z" fill="#323238"/>
<path d="M437.926 189.187C436.93 188.9 436.204 188.549 435.748 188.134C435.296 187.714 435.07 187.198 435.07 186.585C435.07 185.891 435.347 185.319 435.899 184.867C436.456 184.411 437.178 184.183 438.065 184.183C438.67 184.183 439.209 184.3 439.68 184.534C440.156 184.768 440.523 185.091 440.782 185.502C441.044 185.914 441.175 186.363 441.175 186.851H440.007C440.007 186.319 439.838 185.901 439.499 185.599C439.16 185.292 438.682 185.139 438.065 185.139C437.492 185.139 437.045 185.266 436.722 185.52C436.403 185.77 436.244 186.119 436.244 186.567C436.244 186.926 436.395 187.23 436.698 187.48C437.004 187.727 437.523 187.952 438.253 188.158C438.987 188.364 439.559 188.592 439.971 188.842C440.386 189.088 440.693 189.376 440.89 189.707C441.092 190.038 441.193 190.427 441.193 190.874C441.193 191.588 440.915 192.161 440.358 192.593C439.801 193.02 439.057 193.234 438.126 193.234C437.521 193.234 436.956 193.119 436.432 192.889C435.907 192.655 435.502 192.337 435.216 191.933C434.933 191.53 434.792 191.072 434.792 190.56H435.96C435.96 191.092 436.155 191.514 436.547 191.824C436.942 192.131 437.468 192.284 438.126 192.284C438.739 192.284 439.209 192.159 439.535 191.909C439.862 191.659 440.025 191.318 440.025 190.887C440.025 190.455 439.874 190.122 439.572 189.888C439.269 189.65 438.721 189.416 437.926 189.187Z" fill="#323238"/>
<path d="M445.283 189.187C444.286 188.9 443.56 188.549 443.105 188.134C442.653 187.714 442.427 187.198 442.427 186.585C442.427 185.891 442.703 185.319 443.256 184.867C443.813 184.411 444.534 184.183 445.422 184.183C446.027 184.183 446.565 184.3 447.037 184.534C447.513 184.768 447.88 185.091 448.138 185.502C448.4 185.914 448.531 186.363 448.531 186.851H447.364C447.364 186.319 447.194 185.901 446.856 185.599C446.517 185.292 446.039 185.139 445.422 185.139C444.849 185.139 444.401 185.266 444.079 185.52C443.76 185.77 443.601 186.119 443.601 186.567C443.601 186.926 443.752 187.23 444.055 187.48C444.361 187.727 444.879 187.952 445.609 188.158C446.343 188.364 446.916 188.592 447.328 188.842C447.743 189.088 448.049 189.376 448.247 189.707C448.449 190.038 448.55 190.427 448.55 190.874C448.55 191.588 448.271 192.161 447.715 192.593C447.158 193.02 446.414 193.234 445.482 193.234C444.877 193.234 444.313 193.119 443.788 192.889C443.264 192.655 442.859 192.337 442.572 191.933C442.29 191.53 442.149 191.072 442.149 190.56H443.316C443.316 191.092 443.512 191.514 443.903 191.824C444.299 192.131 444.825 192.284 445.482 192.284C446.095 192.284 446.565 192.159 446.892 191.909C447.219 191.659 447.382 191.318 447.382 190.887C447.382 190.455 447.231 190.122 446.928 189.888C446.626 189.65 446.077 189.416 445.283 189.187Z" fill="#323238"/>
<path d="M128.949 395.578H130.117V401.816C130.117 402.659 129.863 403.318 129.355 403.794C128.851 404.27 128.177 404.508 127.334 404.508C126.459 404.508 125.777 404.284 125.289 403.837C124.801 403.389 124.557 402.762 124.557 401.955H125.719C125.719 402.459 125.856 402.852 126.13 403.135C126.408 403.417 126.81 403.558 127.334 403.558C127.814 403.558 128.201 403.407 128.496 403.105C128.794 402.802 128.945 402.379 128.949 401.834V395.578Z" fill="#323238"/>
<path d="M135.961 404.387C135.897 404.258 135.844 404.028 135.804 403.697C135.284 404.238 134.662 404.508 133.941 404.508C133.295 404.508 132.765 404.327 132.349 403.964C131.938 403.597 131.732 403.133 131.732 402.572C131.732 401.891 131.99 401.362 132.507 400.987C133.027 400.608 133.757 400.418 134.697 400.418H135.786V399.904C135.786 399.513 135.669 399.202 135.435 398.972C135.201 398.738 134.856 398.622 134.4 398.622C134.001 398.622 133.666 398.722 133.396 398.924C133.126 399.126 132.991 399.37 132.991 399.656H131.865C131.865 399.329 131.98 399.015 132.21 398.712C132.444 398.406 132.759 398.164 133.154 397.986C133.553 397.809 133.991 397.72 134.467 397.72C135.221 397.72 135.812 397.91 136.24 398.289C136.667 398.664 136.889 399.182 136.905 399.844V402.856C136.905 403.457 136.982 403.935 137.135 404.29V404.387H135.961ZM134.104 403.534C134.455 403.534 134.788 403.443 135.102 403.262C135.417 403.08 135.645 402.844 135.786 402.554V401.211H134.909C133.537 401.211 132.852 401.612 132.852 402.415C132.852 402.766 132.969 403.04 133.202 403.238C133.436 403.435 133.737 403.534 134.104 403.534Z" fill="#323238"/>
<path d="M140.722 402.869L142.344 397.841H143.487L141.14 404.387H140.287L137.915 397.841H139.059L140.722 402.869Z" fill="#323238"/>
<path d="M148.509 404.387C148.444 404.258 148.392 404.028 148.351 403.697C147.831 404.238 147.21 404.508 146.488 404.508C145.843 404.508 145.312 404.327 144.897 403.964C144.486 403.597 144.28 403.133 144.28 402.572C144.28 401.891 144.538 401.362 145.054 400.987C145.575 400.608 146.305 400.418 147.244 400.418H148.333V399.904C148.333 399.513 148.216 399.202 147.982 398.972C147.748 398.738 147.404 398.622 146.948 398.622C146.549 398.622 146.214 398.722 145.944 398.924C145.673 399.126 145.538 399.37 145.538 399.656H144.413C144.413 399.329 144.528 399.015 144.758 398.712C144.992 398.406 145.306 398.164 145.702 397.986C146.101 397.809 146.538 397.72 147.014 397.72C147.769 397.72 148.359 397.91 148.787 398.289C149.215 398.664 149.436 399.182 149.453 399.844V402.856C149.453 403.457 149.529 403.935 149.682 404.29V404.387H148.509ZM146.651 403.534C147.002 403.534 147.335 403.443 147.65 403.262C147.964 403.08 148.192 402.844 148.333 402.554V401.211H147.456C146.085 401.211 145.399 401.612 145.399 402.415C145.399 402.766 145.516 403.04 145.75 403.238C145.984 403.435 146.284 403.534 146.651 403.534Z" fill="#323238"/>
<path d="M153.978 400.461C152.982 400.174 152.256 399.823 151.8 399.408C151.348 398.989 151.122 398.472 151.122 397.859C151.122 397.166 151.399 396.593 151.951 396.141C152.508 395.685 153.23 395.457 154.117 395.457C154.722 395.457 155.26 395.574 155.732 395.808C156.208 396.042 156.575 396.365 156.833 396.776C157.096 397.188 157.227 397.637 157.227 398.125H156.059C156.059 397.593 155.89 397.176 155.551 396.873C155.212 396.567 154.734 396.413 154.117 396.413C153.544 396.413 153.097 396.54 152.774 396.794C152.455 397.045 152.296 397.393 152.296 397.841C152.296 398.2 152.447 398.505 152.75 398.755C153.056 399.001 153.575 399.227 154.305 399.432C155.039 399.638 155.611 399.866 156.023 400.116C156.438 400.362 156.745 400.65 156.942 400.981C157.144 401.312 157.245 401.701 157.245 402.149C157.245 402.863 156.967 403.435 156.41 403.867C155.853 404.294 155.109 404.508 154.177 404.508C153.573 404.508 153.008 404.393 152.484 404.163C151.959 403.929 151.554 403.611 151.267 403.207C150.985 402.804 150.844 402.346 150.844 401.834H152.012C152.012 402.366 152.207 402.788 152.598 403.098C152.994 403.405 153.52 403.558 154.177 403.558C154.791 403.558 155.26 403.433 155.587 403.183C155.914 402.933 156.077 402.592 156.077 402.161C156.077 401.729 155.926 401.396 155.623 401.163C155.321 400.925 154.772 400.691 153.978 400.461Z" fill="#323238"/>
<path d="M161.189 403.595C161.589 403.595 161.938 403.474 162.236 403.232C162.534 402.99 162.7 402.687 162.732 402.324H163.791C163.771 402.699 163.642 403.056 163.404 403.395C163.166 403.734 162.847 404.004 162.448 404.206C162.052 404.407 161.633 404.508 161.189 404.508C160.298 404.508 159.588 404.212 159.06 403.619C158.535 403.022 158.273 402.207 158.273 401.175V400.987C158.273 400.35 158.39 399.783 158.624 399.287C158.858 398.791 159.193 398.406 159.628 398.132C160.068 397.857 160.586 397.72 161.183 397.72C161.917 397.72 162.526 397.94 163.01 398.38C163.498 398.819 163.759 399.39 163.791 400.092H162.732C162.7 399.668 162.538 399.321 162.248 399.051C161.962 398.777 161.607 398.64 161.183 398.64C160.615 398.64 160.173 398.845 159.858 399.257C159.548 399.664 159.393 400.255 159.393 401.029V401.241C159.393 401.995 159.548 402.576 159.858 402.984C160.169 403.391 160.613 403.595 161.189 403.595Z" fill="#323238"/>
<path d="M168.213 398.845C168.044 398.817 167.86 398.803 167.663 398.803C166.929 398.803 166.431 399.116 166.168 399.741V404.387H165.049V397.841H166.138L166.156 398.597C166.523 398.013 167.044 397.72 167.717 397.72C167.935 397.72 168.1 397.748 168.213 397.805V398.845Z" fill="#323238"/>
<path d="M170.464 404.387H169.345V397.841H170.464V404.387ZM169.254 396.105C169.254 395.923 169.308 395.77 169.417 395.645C169.53 395.52 169.696 395.457 169.913 395.457C170.131 395.457 170.296 395.52 170.409 395.645C170.522 395.77 170.579 395.923 170.579 396.105C170.579 396.286 170.522 396.438 170.409 396.559C170.296 396.68 170.131 396.74 169.913 396.74C169.696 396.74 169.53 396.68 169.417 396.559C169.308 396.438 169.254 396.286 169.254 396.105Z" fill="#323238"/>
<path d="M177.79 401.187C177.79 402.183 177.562 402.986 177.107 403.595C176.651 404.204 176.034 404.508 175.255 404.508C174.461 404.508 173.836 404.256 173.38 403.752V406.904H172.261V397.841H173.283L173.338 398.567C173.793 398.002 174.427 397.72 175.237 397.72C176.024 397.72 176.645 398.017 177.101 398.609C177.56 399.202 177.79 400.027 177.79 401.084V401.187ZM176.671 401.06C176.671 400.322 176.514 399.739 176.199 399.311C175.885 398.884 175.453 398.67 174.904 398.67C174.227 398.67 173.719 398.97 173.38 399.571V402.699C173.715 403.296 174.227 403.595 174.917 403.595C175.453 403.595 175.879 403.383 176.193 402.959C176.512 402.532 176.671 401.899 176.671 401.06Z" fill="#323238"/>
<path d="M180.737 396.256V397.841H181.959V398.706H180.737V402.766C180.737 403.028 180.791 403.226 180.9 403.359C181.009 403.488 181.194 403.552 181.457 403.552C181.586 403.552 181.763 403.528 181.989 403.48V404.387C181.695 404.468 181.408 404.508 181.13 404.508C180.63 404.508 180.253 404.357 179.999 404.054C179.744 403.752 179.617 403.322 179.617 402.766V398.706H178.426V397.841H179.617V396.256H180.737Z" fill="#323238"/>
<path opacity="0.4" d="M521.115 144.356C560.121 166.874 560.121 203.384 521.115 225.902C482.109 248.42 418.867 248.42 379.861 225.902C340.855 203.384 340.855 166.874 379.861 144.356C418.867 121.838 482.109 121.838 521.115 144.356Z" fill="black"/>
<g filter="url(#filter0_d)">
<path d="M521.115 99.9609C560.121 122.479 560.121 158.989 521.115 181.507C482.109 204.025 418.867 204.025 379.861 181.507C340.855 158.989 340.855 122.479 379.861 99.9609C418.867 77.4426 482.109 77.4426 521.115 99.9609Z" fill="#202024"/>
</g>
<path d="M447.988 170.727L454.163 167.162C457.439 165.271 459.279 162.706 459.279 160.032C459.279 157.358 457.439 154.793 454.163 152.902L429.463 138.643C426.187 136.752 421.745 135.69 417.113 135.69C412.481 135.69 408.038 136.752 404.763 138.643L398.588 142.208" stroke="#04D361" stroke-width="4" stroke-linecap="round" stroke-linejoin="round"/>
<path d="M452.62 138.643C459.44 142.58 470.499 142.58 477.32 138.643C484.141 134.705 484.141 128.321 477.32 124.383C470.499 120.445 459.44 120.445 452.62 124.383C445.799 128.321 445.799 134.705 452.62 138.643Z" stroke="#04D361" stroke-width="4" stroke-linecap="round" stroke-linejoin="round"/>
<path opacity="0.4" d="M486.003 311.336C511.261 325.917 511.261 349.559 486.003 364.14C460.745 378.722 419.793 378.722 394.535 364.14C369.277 349.559 369.277 325.917 394.535 311.336C419.793 296.754 460.745 296.754 486.003 311.336Z" fill="black"/>
<g filter="url(#filter1_d)">
<path d="M486.003 267.372C511.261 281.953 511.261 305.595 486.003 320.176C460.745 334.758 419.793 334.758 394.535 320.176C369.277 305.595 369.277 281.953 394.535 267.372C419.793 252.79 460.745 252.79 486.003 267.372Z" fill="#202024"/>
</g>
<path d="M438.163 313.457L442.161 311.149C444.282 309.924 445.474 308.264 445.474 306.532C445.474 304.8 444.282 303.14 442.161 301.915L426.167 292.682C424.046 291.457 421.169 290.769 418.17 290.769C415.17 290.769 412.294 291.457 410.173 292.682L406.174 294.99" stroke="#FD951F" stroke-width="3" stroke-linecap="round" stroke-linejoin="round"/>
<path d="M443.427 291.951C447.843 294.501 455.004 294.501 459.421 291.951C463.838 289.402 463.838 285.268 459.421 282.718C455.004 280.168 447.843 280.168 443.427 282.718C439.01 285.268 439.01 289.402 443.427 291.951Z" stroke="#FD951F" stroke-width="3" stroke-linecap="round" stroke-linejoin="round"/>
<path opacity="0.4" d="M291.152 207.914C353.178 243.722 353.178 301.778 291.152 337.586C229.125 373.393 128.561 373.393 66.5347 337.586C4.50833 301.778 4.50833 243.722 66.5347 207.914C128.561 172.107 229.125 172.107 291.152 207.914Z" fill="black"/>
<g filter="url(#filter2_d)">
<path d="M291.152 163.827C353.178 199.635 353.178 257.691 291.152 293.499C229.125 329.306 128.561 329.306 66.5347 293.499C4.50833 257.691 4.50833 199.635 66.5347 163.827C128.561 128.019 229.125 128.019 291.152 163.827Z" fill="#202024"/>
</g>
<path d="M174.759 276.018L184.578 270.35C189.786 267.343 192.713 263.265 192.713 259.012C192.713 254.76 189.786 250.682 184.578 247.675L145.301 225C140.092 221.993 133.028 220.304 125.662 220.304C118.296 220.304 111.232 221.993 106.023 225L96.2041 230.669" stroke="#7159C1" stroke-width="5" stroke-linecap="round" stroke-linejoin="round"/>
<path d="M183.351 225.708C194.197 231.97 211.782 231.97 222.628 225.708C233.474 219.447 233.474 209.295 222.628 203.033C211.782 196.772 194.197 196.772 183.351 203.033C172.505 209.295 172.505 219.447 183.351 225.708Z" stroke="#7159C1" stroke-width="5" stroke-linecap="round" stroke-linejoin="round"/>
<defs>
<filter id="filter0_d" x="346.606" y="83.0723" width="207.764" height="127.323" filterUnits="userSpaceOnUse" color-interpolation-filters="sRGB">
<feFlood flood-opacity="0" result="BackgroundImageFix"/>
<feColorMatrix in="SourceAlpha" type="matrix" values="0 0 0 0 0 0 0 0 0 0 0 0 0 0 0 0 0 0 127 0"/>
<feOffset dy="8"/>
<feGaussianBlur stdDeviation="2"/>
<feColorMatrix type="matrix" values="0 0 0 0 0.160784 0 0 0 0 0.160784 0 0 0 0 0.180392 0 0 0 1 0"/>
<feBlend mode="normal" in2="BackgroundImageFix" result="effect1_dropShadow"/>
<feBlend mode="normal" in="SourceGraphic" in2="effect1_dropShadow" result="shape"/>
</filter>
<filter id="filter1_d" x="371.592" y="256.436" width="137.355" height="86.6767" filterUnits="userSpaceOnUse" color-interpolation-filters="sRGB">
<feFlood flood-opacity="0" result="BackgroundImageFix"/>
<feColorMatrix in="SourceAlpha" type="matrix" values="0 0 0 0 0 0 0 0 0 0 0 0 0 0 0 0 0 0 127 0"/>
<feOffset dy="8"/>
<feGaussianBlur stdDeviation="2"/>
<feColorMatrix type="matrix" values="0 0 0 0 0.160784 0 0 0 0 0.160784 0 0 0 0 0.180392 0 0 0 1 0"/>
<feBlend mode="normal" in2="BackgroundImageFix" result="effect1_dropShadow"/>
<feBlend mode="normal" in="SourceGraphic" in2="effect1_dropShadow" result="shape"/>
</filter>
<filter id="filter2_d" x="16.0151" y="136.971" width="325.657" height="195.383" filterUnits="userSpaceOnUse" color-interpolation-filters="sRGB">
<feFlood flood-opacity="0" result="BackgroundImageFix"/>
<feColorMatrix in="SourceAlpha" type="matrix" values="0 0 0 0 0 0 0 0 0 0 0 0 0 0 0 0 0 0 127 0"/>
<feOffset dy="8"/>
<feGaussianBlur stdDeviation="2"/>
<feColorMatrix type="matrix" values="0 0 0 0 0.160784 0 0 0 0 0.160784 0 0 0 0 0.180392 0 0 0 1 0"/>
<feBlend mode="normal" in2="BackgroundImageFix" result="effect1_dropShadow"/>
<feBlend mode="normal" in="SourceGraphic" in2="effect1_dropShadow" result="shape"/>
</filter>
</defs>
</svg>
