<svg width="240" height="81" viewBox="0 0 240 81" fill="none" xmlns="http://www.w3.org/2000/svg">
<path d="M-0.000364197 43.6452L1.29309 44.9424L9.74133 36.47L8.44788 35.1729L-0.000364197 43.6452Z" fill="white"/>
<path d="M1.29394 35.1755L0.000488281 36.4727L8.44873 44.945L9.74219 43.6479L1.29394 35.1755Z" fill="white"/>
<path d="M31.2239 43.6434L32.5173 44.9404L40.9656 36.4689L39.6721 35.1719L31.2239 43.6434Z" fill="white"/>
<path d="M32.5218 35.1736L31.2284 36.4707L39.6766 44.9431L40.9701 43.6459L32.5218 35.1736Z" fill="white"/>
<path d="M62.4509 43.6434L63.7444 44.9404L72.1926 36.4689L70.8992 35.1719L62.4509 43.6434Z" fill="#7159C1"/>
<path d="M63.751 35.1698L62.4575 36.4668L70.9058 44.9383L72.1992 43.6413L63.751 35.1698Z" fill="#7159C1"/>
<path d="M93.6835 43.6183L94.9769 44.9155L103.426 36.4437L102.133 35.1465L93.6835 43.6183Z" fill="#7159C1"/>
<path d="M94.9659 35.1819L93.6725 36.479L102.121 44.951L103.414 43.6539L94.9659 35.1819Z" fill="#7159C1"/>
<path d="M124.909 43.6501L126.203 44.9473L134.651 36.4749L133.357 35.1777L124.909 43.6501Z" fill="#04D361"/>
<path d="M126.194 35.1805L124.9 36.4775L133.349 44.9495L134.642 43.6524L126.194 35.1805Z" fill="#04D361"/>
<path d="M238.337 40.7642L199.988 2.30664L161.639 40.7642L199.988 79.2217L238.337 40.7642Z" stroke="#04D361" stroke-width="2" stroke-miterlimit="10"/>
<path d="M199.997 44.7827C202.209 44.7827 204.002 42.9846 204.002 40.7666C204.002 38.5486 202.209 36.7505 199.997 36.7505C197.786 36.7505 195.993 38.5486 195.993 40.7666C195.993 42.9846 197.786 44.7827 199.997 44.7827Z" fill="#7159C1"/>
</svg>
