<svg xmlns="http://www.w3.org/2000/svg" width="120.365" height="26.836" viewBox="0 0 120.365 26.836">
  <g id="Group_28" data-name="Group 28" transform="translate(-0.185 -0.048)">
    <path id="Fill_2" data-name="Fill 2" d="M10.116,12.722H7.187a.059.059,0,0,1-.05-.028L4.066,7.531H2.64v5.133a.058.058,0,0,1-.058.058H.058A.058.058,0,0,1,0,12.664V.058A.058.058,0,0,1,.058,0H4.946c2.928,0,4.54,1.312,4.54,3.695a3.657,3.657,0,0,1-.812,2.416A3.967,3.967,0,0,1,6.886,7.329l3.278,5.3a.057.057,0,0,1,0,.059A.059.059,0,0,1,10.116,12.722ZM2.64,2.2V5.3H4.822c1.35,0,2.007-.524,2.007-1.6,0-.682-.345-1.5-1.989-1.5Z" transform="translate(31.703 7.105)" fill="#fff"/>
    <path id="Fill_4" data-name="Fill 4" d="M4.487,9.405A4.357,4.357,0,0,1,0,4.694,4.443,4.443,0,0,1,4.487,0,4.341,4.341,0,0,1,8.956,4.694,4.444,4.444,0,0,1,4.487,9.405Zm0-7.227c-1.281,0-2.077.964-2.077,2.516,0,1.573.8,2.55,2.077,2.55s2.059-.977,2.059-2.55C6.546,3.142,5.757,2.178,4.487,2.178Z" transform="translate(42.267 10.463)" fill="#fff"/>
    <path id="Fill_6" data-name="Fill 6" d="M4.4,2.178A1.59,1.59,0,0,1,6.142,3.53a.058.058,0,0,0,.057.046H8.439a.058.058,0,0,0,.043-.019A.058.058,0,0,0,8.5,3.513C8.314,1.281,6.84,0,4.451,0A4.252,4.252,0,0,0,1.166,1.368,5,5,0,0,0,0,4.762C0,7.626,1.672,9.405,4.363,9.405c2.382,0,3.888-1.261,4.134-3.461a.058.058,0,0,0-.058-.065H6.2a.058.058,0,0,0-.057.047c-.177.887-.742,1.3-1.778,1.3-1.7,0-1.953-1.566-1.953-2.5,0-1.233.522-2.55,1.989-2.55" transform="translate(52.238 10.463)" fill="#fff"/>
    <path id="Fill_8" data-name="Fill 8" d="M4.452,9.405C1.664,9.405,0,7.657,0,4.728,0,1.9,1.782,0,4.434,0c2.6,0,4.222,1.759,4.222,4.592,0,.3-.017.554-.034.8l0,.024a.059.059,0,0,1-.058.054H2.433A1.828,1.828,0,0,0,4.416,7.329a1.462,1.462,0,0,0,1.621-.984.058.058,0,0,1,.055-.039H8.316a.059.059,0,0,1,.058.067A3.741,3.741,0,0,1,4.452,9.405ZM4.4,2.11A1.758,1.758,0,0,0,2.512,3.6h3.7A1.687,1.687,0,0,0,4.4,2.11Z" transform="translate(70.117 10.463)" fill="#fff"/>
    <path id="Fill_10" data-name="Fill 10" d="M6.092,2.322H4.033V.058A.058.058,0,0,0,3.975,0H1.681a.058.058,0,0,0-.058.058V2.322H.058A.058.058,0,0,0,0,2.38V4.429a.058.058,0,0,0,.058.058H1.623V9.27c0,2.04,1.159,2.457,2.9,2.457h1.57a.058.058,0,0,0,.058-.058V9.655A.058.058,0,0,0,6.092,9.6H4.928c-.694,0-.895-.187-.895-.835V4.487H6.092a.058.058,0,0,0,.058-.058V2.38a.058.058,0,0,0-.058-.058" transform="translate(79.817 8.14)" fill="#fff"/>
    <path id="Fill_12" data-name="Fill 12" d="M5.493,3.957h0l-1.94-.613c-.723-.245-.86-.439-.86-.712s.124-.658,1.195-.658c.832,0,1.338.342,1.353.915a.058.058,0,0,0,.058.057H7.539A.058.058,0,0,0,7.6,2.887,2.567,2.567,0,0,0,6.466.625,4.589,4.589,0,0,0,3.94,0C2.161,0,.248.74.212,2.819c0,1.618,1.189,2.194,2.352,2.544l1.481.46c1.073.351,1.354.46,1.354.865,0,.456-.254.76-1.495.76-.993,0-1.5-.361-1.548-1.1A.058.058,0,0,0,2.3,6.289H.058A.058.058,0,0,0,0,6.347C0,8.875,2.133,9.405,3.922,9.405a5.126,5.126,0,0,0,2.66-.648A2.526,2.526,0,0,0,7.809,6.484c0-1.462-.926-2.067-2.316-2.527" transform="translate(87.012 10.463)" fill="#fff"/>
    <path id="Fill_14" data-name="Fill 14" d="M4.452,9.405C1.664,9.405,0,7.657,0,4.728,0,1.9,1.782,0,4.434,0c2.6,0,4.222,1.759,4.222,4.592,0,.3-.017.554-.034.8l0,.024a.059.059,0,0,1-.058.054H2.433A1.828,1.828,0,0,0,4.416,7.329a1.462,1.462,0,0,0,1.621-.984.058.058,0,0,1,.055-.039H8.316a.059.059,0,0,1,.058.067A3.741,3.741,0,0,1,4.452,9.405ZM4.4,2.11A1.758,1.758,0,0,0,2.512,3.6h3.7A1.687,1.687,0,0,0,4.4,2.11Z" transform="translate(95.647 10.463)" fill="#fff"/>
    <path id="Fill_16" data-name="Fill 16" d="M8.7,9.415H6.957A1.239,1.239,0,0,1,5.773,8.1,3.246,3.246,0,0,1,2.952,9.364,2.657,2.657,0,0,1,0,6.727C0,5.18,1.067,4.207,3.171,3.836l1.517-.289c.736-.118.906-.247.906-.69,0-.532-.512-.824-1.442-.824-.98,0-1.477.3-1.477.892a.058.058,0,0,1-.058.058H.376a.058.058,0,0,1-.058-.058C.318,1.148,1.843,0,4.2,0,6.773,0,8.021,1.112,8.021,3.4V7.015c0,.326.154.485.471.485H8.7a.058.058,0,0,1,.058.058v1.8A.058.058,0,0,1,8.7,9.415ZM5.611,5.1a1.922,1.922,0,0,1-.478.144l-1.322.271c-.945.2-1.33.512-1.33,1.063,0,.751.592.909,1.089.909A2.039,2.039,0,0,0,5.611,5.4Z" transform="translate(105.338 10.463)" fill="#fff"/>
    <path id="Fill_18" data-name="Fill 18" d="M6.092,4.487a.058.058,0,0,0,.058-.058V2.38a.058.058,0,0,0-.058-.058H4.033V.058A.058.058,0,0,0,3.975,0H1.681a.058.058,0,0,0-.058.058V2.322H.058A.058.058,0,0,0,0,2.38V4.429a.058.058,0,0,0,.058.058H1.623V9.27c0,2.039,1.159,2.457,2.9,2.457h1.57a.058.058,0,0,0,.058-.058V9.655A.058.058,0,0,0,6.092,9.6H4.928c-.694,0-.895-.187-.895-.835V4.487Z" transform="translate(114.4 8.14)" fill="#fff"/>
    <path id="Fill_20" data-name="Fill 20" d="M4.951,3.686,8.6.1A.058.058,0,0,0,8.556,0H5.681a.057.057,0,0,0-.04.016L2.41,3.153V.058A.058.058,0,0,0,2.352,0H.058A.058.058,0,0,0,0,.058V9.347a.058.058,0,0,0,.058.058H2.352a.058.058,0,0,0,.058-.058V6.2l.815-.8L5.939,9.38a.059.059,0,0,0,.048.025H8.845a.058.058,0,0,0,.048-.091Z" transform="translate(61.779 10.463)" fill="#fff"/>
    <path id="Fill_22" data-name="Fill 22" d="M7.21,4.314C6.536,3.9,3.693,2.165,3.693,2.165S.85.426.175.015A.1.1,0,0,0,.025.1C.017.253.006.483,0,.612A.3.3,0,0,0,.047.789L.854,2.075a.569.569,0,0,1,.069.445l-.57,2.2a.229.229,0,0,0,.08.238,10.93,10.93,0,0,0,1.1.758A10.893,10.893,0,0,0,2.7,6.341.229.229,0,0,0,2.95,6.3L4.641,4.792a.568.568,0,0,1,.427-.142l1.512.131a.3.3,0,0,0,.179-.04l.448-.257a.1.1,0,0,0,0-.171" transform="translate(3.558 13.281)" fill="#fff"/>
    <path id="Fill_24" data-name="Fill 24" d="M5.808,1.6a.56.56,0,0,0-.3-.41C5.054.963,4.7.748,4.6.688S4.145.408,3.739.109a.56.56,0,0,0-.5-.082l-.1.031A2.119,2.119,0,0,0,1.745,1.512L.008,7.809a.216.216,0,0,0,.355.217L5.169,3.6a2.12,2.12,0,0,0,.656-1.9Z" transform="translate(0.185 18.8)" fill="#fff"/>
    <path id="Fill_26" data-name="Fill 26" d="M21.177,1.177a.394.394,0,0,0-.01-.564h0a.745.745,0,0,0-.351-.151L17.831.009a.754.754,0,0,0-.72.3l-1.629,2.21a.753.753,0,0,0,.127,1.028.057.057,0,0,1,.012.073.058.058,0,0,1-.058.026l-.821-.125L13.61,3.348a.858.858,0,0,0-.819.339L8.03,10.146a.2.2,0,0,1-.267.053L3.18,7.43a.631.631,0,0,0-.875.229.651.651,0,0,0,.247.868L2.67,8.6a.169.169,0,0,1,.08.17l-.139.923a.125.125,0,0,1-.189.089l-.671-.4A1.151,1.151,0,0,0,.386,11.222c.013.011.131.1.162.121h0l3.424,2.1a3.14,3.14,0,0,0,3.7-.128,1.208,1.208,0,0,1,1.572-.166.843.843,0,0,0,.866,0l.852-.505a.794.794,0,0,1,.815,0l2.6,1.569a.231.231,0,0,0,.3-.061l6.346-8.6c.518-.691.134-1.027-.181-1.109-.02,0-.04-.01-.061-.014L19.259,4.2a.185.185,0,0,1-.066-.026.18.18,0,0,1-.059-.247c.516-.7,2.043-2.755,2.043-2.755" transform="translate(1.359 0.048)" fill="#fff"/>
  </g>
</svg>
