<svg width="119" height="16" viewBox="0 0 119 16" fill="none" xmlns="http://www.w3.org/2000/svg">
<path d="M1.49667e-05 13.8658L2.11768 15.9824L15.9492 2.15766L13.8316 0.0410422L1.49667e-05 13.8658Z" fill="#E1E1E6"/>
<path d="M2.12836 0.0386536L0.0106964 2.15527L13.8423 15.98L15.9599 13.8634L2.12836 0.0386536Z" fill="#E1E1E6"/>
<path d="M51.1343 13.8245L53.252 15.9414L67.0855 2.11665L64.9678 -0.000271201L51.1343 13.8245Z" fill="#7159C1"/>
<path d="M53.2338 0.0586874L51.1162 2.17529L64.9477 16L67.0654 13.8834L53.2338 0.0586874Z" fill="#7159C1"/>
<path d="M102.257 13.8765L104.375 15.9932L118.206 2.1684L116.089 0.0517837L102.257 13.8765Z" fill="#04D361"/>
<path d="M104.361 0.0562399L102.243 2.17285L116.074 15.9976L118.192 13.8809L104.361 0.0562399Z" fill="#04D361"/>
</svg>
