<svg width="556" height="556" viewBox="0 0 556 556" fill="none" xmlns="http://www.w3.org/2000/svg">
<path d="M278.045 555.078H277.55C276.145 555.078 274.762 555.078 273.378 555.037L273.812 525.3C275.051 525.321 276.311 525.321 277.55 525.321H278.045V555.078ZM288.515 554.872L287.379 525.155C288.618 525.114 289.857 525.052 291.096 524.99L292.707 554.707C291.323 554.748 289.919 554.81 288.515 554.872ZM262.929 554.707C261.546 554.624 260.162 554.541 258.778 554.459L260.74 524.784C261.979 524.866 263.239 524.949 264.499 525.011L262.929 554.707ZM303.156 553.922L300.41 524.309C301.669 524.185 302.908 524.061 304.147 523.937L307.286 553.529C305.923 553.653 304.54 553.777 303.156 553.922ZM248.35 553.55C246.946 553.406 245.562 553.24 244.179 553.075L247.751 523.545C248.99 523.689 250.209 523.834 251.448 523.958L248.35 553.55ZM317.694 552.187L313.378 522.76C314.617 522.574 315.856 522.388 317.095 522.182L321.824 551.547C320.461 551.774 319.077 551.981 317.694 552.187ZM233.812 551.63C232.429 551.402 231.045 551.175 229.661 550.927L234.803 521.624C236.022 521.831 237.24 522.037 238.459 522.244L233.812 551.63ZM332.108 549.709L326.305 520.53C327.523 520.282 328.742 520.034 329.94 519.766L336.217 548.842C334.854 549.151 333.471 549.42 332.108 549.709ZM219.398 548.945C218.035 548.656 216.672 548.346 215.309 548.036L221.98 519.043C223.198 519.332 224.416 519.6 225.635 519.848L219.398 548.945ZM346.418 546.446L339.005 517.639C340.223 517.329 341.421 517.019 342.619 516.689L350.445 545.393C349.124 545.744 347.761 546.095 346.418 546.446ZM205.17 545.517C203.807 545.145 202.465 544.774 201.123 544.381L209.342 515.78C210.539 516.131 211.716 516.461 212.935 516.771L205.17 545.517ZM360.502 542.419L351.602 514.025C352.799 513.653 353.976 513.281 355.154 512.889L364.487 541.139C363.166 541.573 361.824 542.006 360.502 542.419ZM191.128 541.304C189.806 540.871 188.485 540.416 187.184 539.983L196.848 511.836C198.046 512.249 199.244 512.641 200.441 513.034L191.128 541.304ZM374.358 537.67L363.93 509.812C365.107 509.378 366.263 508.924 367.42 508.47L378.241 536.183C376.96 536.678 375.659 537.174 374.358 537.67ZM177.292 536.348C175.991 535.832 174.69 535.316 173.389 534.799L184.582 507.231C185.738 507.706 186.895 508.16 188.072 508.614L177.292 536.348ZM387.905 532.197L376.072 504.897C377.208 504.402 378.323 503.906 379.459 503.39L391.725 530.483C390.466 531.082 389.185 531.64 387.905 532.197ZM163.766 530.669C162.486 530.091 161.206 529.513 159.946 528.914L172.605 501.985C173.74 502.522 174.855 503.039 176.012 503.555L163.766 530.669ZM401.162 526.023L387.864 499.425C388.979 498.867 390.073 498.31 391.188 497.731L404.9 524.143C403.641 524.763 402.401 525.383 401.162 526.023ZM150.55 524.267C149.311 523.627 148.093 522.987 146.854 522.326L160.875 496.1C161.99 496.699 163.085 497.277 164.2 497.855L150.55 524.267ZM414.048 519.146L399.366 493.271C400.46 492.651 401.534 492.032 402.608 491.412L417.662 517.06C416.464 517.762 415.267 518.465 414.048 519.146ZM137.706 517.205C136.508 516.503 135.31 515.78 134.112 515.057L149.538 489.616C150.612 490.256 151.686 490.896 152.76 491.536L137.706 517.205ZM426.562 511.609L410.558 486.539C411.612 485.878 412.644 485.196 413.677 484.515L430.073 509.337C428.917 510.101 427.739 510.845 426.562 511.609ZM125.233 509.461C124.076 508.697 122.92 507.912 121.763 507.127L138.511 482.532C139.543 483.235 140.576 483.937 141.629 484.618L125.233 509.461ZM438.705 503.39L421.358 479.228C422.37 478.506 423.403 477.762 424.415 477.019L442.071 500.973C440.935 501.779 439.82 502.584 438.705 503.39ZM113.214 501.077C112.099 500.251 110.984 499.425 109.869 498.578L127.855 474.892C128.847 475.656 129.858 476.399 130.87 477.143L113.214 501.077ZM450.331 494.592L431.808 471.319C432.778 470.555 433.728 469.77 434.699 468.986L453.614 491.949C452.52 492.837 451.425 493.725 450.331 494.592ZM101.671 492.073C100.597 491.185 99.5231 490.297 98.4493 489.388L117.695 466.693C118.645 467.499 119.595 468.284 120.566 469.089L101.671 492.073ZM461.544 485.176L441.782 462.935C442.711 462.109 443.64 461.283 444.569 460.436L464.642 482.388C463.63 483.317 462.597 484.246 461.544 485.176ZM90.5815 482.47C89.549 481.541 88.5371 480.591 87.5252 479.641L107.886 457.958C108.795 458.826 109.724 459.672 110.654 460.519L90.5815 482.47ZM472.22 475.181L451.363 453.973C452.251 453.105 453.119 452.217 453.986 451.35L475.194 472.207C474.223 473.219 473.232 474.21 472.22 475.181ZM80.0498 472.352C79.0586 471.36 78.0881 470.349 77.1175 469.337L98.6351 448.789C99.4818 449.677 100.349 450.565 101.216 451.453L80.0498 472.352ZM482.38 464.628L460.429 444.556C461.276 443.647 462.102 442.718 462.928 441.789L485.189 461.531C484.259 462.563 483.33 463.596 482.38 464.628ZM70.0551 461.655C69.1258 460.622 68.2172 459.569 67.3086 458.516L89.8381 439.084C90.6435 440.033 91.4695 440.963 92.2955 441.892L70.0551 461.655ZM491.983 453.58L469.02 434.664C469.804 433.694 470.589 432.744 471.374 431.773L494.626 450.317C493.738 451.412 492.871 452.506 491.983 453.58ZM60.6179 450.462C59.7505 449.367 58.8832 448.273 58.0159 447.158L81.5573 428.985C82.3214 429.956 83.0854 430.926 83.8495 431.897L60.6179 450.462ZM500.986 442.016L477.052 424.36C477.796 423.348 478.519 422.336 479.262 421.324L503.464 438.629C502.638 439.765 501.812 440.88 500.986 442.016ZM51.8002 438.794C50.9948 437.659 50.1895 436.523 49.4047 435.387L73.8341 418.412C74.5569 419.445 75.259 420.457 75.9817 421.468L51.8002 438.794ZM509.37 430.018L484.549 413.621C485.23 412.589 485.911 411.556 486.572 410.503L511.662 426.487C510.898 427.664 510.134 428.841 509.37 430.018ZM43.602 426.672C42.8586 425.495 42.1152 424.318 41.3924 423.141L66.6891 407.488C67.3499 408.541 68.0107 409.594 68.6715 410.648L43.602 426.672ZM517.135 417.545L491.466 402.511C492.107 401.437 492.726 400.343 493.346 399.248L519.22 413.931C518.518 415.129 517.837 416.347 517.135 417.545ZM36.0646 414.179C35.3832 412.96 34.7017 411.742 34.0202 410.524L60.1016 396.213C60.7005 397.307 61.2993 398.381 61.9188 399.455L36.0646 414.179ZM524.197 404.7L497.785 391.009C498.364 389.894 498.921 388.799 499.479 387.684L526.097 400.962C525.477 402.222 524.837 403.461 524.197 404.7ZM29.1674 401.293C28.5479 400.054 27.9284 398.794 27.3295 397.534L54.1337 384.628C54.6706 385.743 55.2075 386.858 55.765 387.952L29.1674 401.293ZM530.599 391.484L503.485 379.259C504.001 378.123 504.517 376.966 505.013 375.831L532.313 387.663C531.755 388.944 531.177 390.203 530.599 391.484ZM22.993 388.035C22.4354 386.755 21.8985 385.474 21.3616 384.194L48.8059 372.733C49.2808 373.869 49.7764 375.025 50.2721 376.161L22.993 388.035ZM536.298 377.958L508.565 367.157C509.019 366.001 509.473 364.824 509.907 363.647L537.785 374.034C537.289 375.356 536.794 376.657 536.298 377.958ZM17.5206 374.509C17.025 373.208 16.5501 371.886 16.0751 370.565L44.0976 360.59C44.5106 361.767 44.9443 362.924 45.3779 364.08L17.5206 374.509ZM541.254 364.101L512.984 354.829C513.376 353.631 513.748 352.433 514.14 351.236L542.535 360.095C542.122 361.458 541.709 362.779 541.254 364.101ZM12.7504 360.632C12.3374 359.31 11.9244 357.988 11.532 356.667L40.0295 348.117C40.4012 349.315 40.7523 350.533 41.1446 351.731L12.7504 360.632ZM545.467 350.1L516.763 342.294C517.093 341.096 517.403 339.898 517.713 338.701L546.541 346.032C546.19 347.374 545.839 348.737 545.467 350.1ZM8.72358 346.548C8.37253 345.206 8.04213 343.843 7.71172 342.48L36.6428 335.541C36.9319 336.759 37.2417 337.957 37.5514 339.155L8.72358 346.548ZM548.916 335.83L519.819 329.594C520.088 328.375 520.336 327.157 520.583 325.939L549.762 331.741C549.494 333.104 549.205 334.467 548.916 335.83ZM5.46084 332.278C5.19239 330.915 4.92392 329.532 4.67612 328.169L33.9376 322.758C34.1648 323.977 34.392 325.216 34.6398 326.434L5.46084 332.278ZM551.6 321.457L522.235 316.728C522.421 315.51 522.607 314.292 522.793 313.053L552.24 317.286C552.034 318.69 551.827 320.074 551.6 321.457ZM2.96214 317.823C2.75564 316.439 2.56979 315.076 2.38393 313.693L31.8726 309.81C32.0378 311.049 32.203 312.288 32.3889 313.528L2.96214 317.823ZM553.541 306.919L523.949 303.78C524.073 302.541 524.197 301.323 524.321 300.084L553.954 302.748C553.81 304.131 553.686 305.536 553.541 306.919ZM1.22752 303.305C1.10362 301.901 0.979719 300.518 0.876468 299.113L30.5303 296.842C30.6129 298.081 30.7368 299.32 30.8401 300.538L1.22752 303.305ZM554.698 292.299L524.982 290.771C525.044 289.511 525.106 288.272 525.147 287.012L554.863 288.148C554.822 289.531 554.76 290.915 554.698 292.299ZM0.277606 288.685C0.215655 287.301 0.174355 285.918 0.133054 284.513L29.8695 283.77C29.8902 285.009 29.9315 286.269 29.9934 287.508L0.277606 288.685ZM525.333 277.678C525.333 276.315 525.333 275.138 525.312 273.94L555.049 273.486C555.069 274.849 555.09 276.232 555.069 277.595L525.333 277.678ZM29.8076 274.415L0.071106 274.064C0.0917563 272.66 0.112393 271.276 0.153693 269.893L29.8902 270.677C29.8489 271.916 29.8282 273.176 29.8076 274.415ZM524.982 264.606C524.92 263.346 524.837 262.107 524.755 260.848L554.429 258.886C554.512 260.27 554.594 261.653 554.677 263.037L524.982 264.606ZM30.3238 261.364L0.628658 259.443C0.711259 258.06 0.814514 256.656 0.938416 255.272L30.5923 257.626C30.489 258.865 30.4064 260.104 30.3238 261.364ZM523.97 251.555C523.846 250.316 523.701 249.077 523.557 247.838L553.087 244.307C553.252 245.69 553.417 247.074 553.562 248.478L523.97 251.555ZM31.5009 248.333L1.95028 244.843C2.11548 243.46 2.28068 242.076 2.46654 240.693L31.9552 244.616C31.8107 245.876 31.6661 247.094 31.5009 248.333ZM522.277 238.586C522.091 237.347 521.884 236.129 521.657 234.91L550.96 229.81C551.208 231.173 551.435 232.556 551.641 233.94L522.277 238.586ZM33.3801 235.406L4.05662 230.347C4.28377 228.963 4.53156 227.6 4.80002 226.237L34.0409 231.71C33.8137 232.949 33.5866 234.167 33.3801 235.406ZM519.881 225.762C519.613 224.544 519.344 223.305 519.076 222.086L548.069 215.437C548.379 216.8 548.688 218.142 548.978 219.505L519.881 225.762ZM35.9407 222.582L6.92701 215.995C7.23677 214.632 7.56716 213.248 7.89757 211.885L36.7874 218.968C36.4983 220.166 36.2092 221.384 35.9407 222.582ZM516.804 213.041C516.474 211.844 516.143 210.625 515.792 209.428L544.393 201.271C544.765 202.613 545.137 203.935 545.508 205.277L516.804 213.041ZM39.1828 209.923L10.5615 201.808C10.9332 200.465 11.3255 199.123 11.7385 197.781L40.236 206.33C39.8643 207.528 39.5132 208.725 39.1828 209.923ZM513.067 200.527C512.674 199.35 512.282 198.152 511.869 196.975L539.995 187.269C540.449 188.591 540.883 189.913 541.337 191.234L513.067 200.527ZM43.0857 197.43L14.9393 187.786C15.3936 186.464 15.8479 185.142 16.3229 183.821L44.3248 193.878C43.9118 195.055 43.4987 196.232 43.0857 197.43ZM508.668 188.219C508.214 187.063 507.76 185.906 507.285 184.75L534.853 173.578C535.369 174.858 535.885 176.159 536.381 177.44L508.668 188.219ZM47.6701 185.142L20.0813 174.012C20.5975 172.711 21.1344 171.43 21.6713 170.15L49.095 181.694C48.62 182.83 48.1451 183.986 47.6701 185.142ZM503.629 176.201C503.113 175.065 502.597 173.95 502.081 172.814L529.029 160.196C529.628 161.456 530.206 162.716 530.764 163.996L503.629 176.201ZM52.8947 173.124L25.9253 160.547C26.5242 159.267 27.123 158.007 27.7425 156.727L54.4847 169.758C53.9684 170.873 53.4316 171.988 52.8947 173.124ZM497.971 164.45C497.393 163.335 496.815 162.241 496.237 161.146L522.483 147.125C523.144 148.343 523.784 149.582 524.424 150.821L497.971 164.45ZM58.7593 161.415L32.4921 147.434C33.1529 146.195 33.8137 144.977 34.4952 143.759L60.5353 158.131C59.9364 159.205 59.3376 160.3 58.7593 161.415ZM491.673 153.01C491.053 151.936 490.413 150.883 489.773 149.809L515.235 134.404C515.958 135.602 516.66 136.799 517.383 137.997L491.673 153.01ZM65.2229 150.036L39.7404 134.672C40.4632 133.474 41.1859 132.297 41.9293 131.1L67.164 146.835C66.5032 147.889 65.8631 148.962 65.2229 150.036ZM484.817 141.921C484.135 140.888 483.433 139.835 482.752 138.823L507.367 122.117C508.152 123.273 508.916 124.43 509.68 125.586L484.817 141.921ZM72.2646 139.009L47.6495 122.323C48.4342 121.167 49.2189 120.031 50.0036 118.895L74.4123 135.891C73.6895 136.923 72.9668 137.956 72.2646 139.009ZM477.342 131.182C476.598 130.191 475.855 129.179 475.111 128.188L498.818 110.222C499.665 111.337 500.491 112.452 501.317 113.567L477.342 131.182ZM79.8846 128.353L56.1781 110.387C57.0247 109.272 57.8714 108.177 58.718 107.083L82.1768 125.379C81.4128 126.371 80.6487 127.362 79.8846 128.353ZM469.35 120.878C468.565 119.907 467.76 118.957 466.954 118.007L489.69 98.8227C490.578 99.8759 491.466 100.95 492.354 102.024L469.35 120.878ZM88.0622 118.131L65.3055 98.9673C66.2141 97.8934 67.1227 96.8402 68.0313 95.787L90.4783 115.323C89.6729 116.231 88.8675 117.181 88.0622 118.131ZM460.801 110.965C459.954 110.036 459.128 109.127 458.261 108.219L479.964 87.8779C480.914 88.8898 481.864 89.9223 482.814 90.9548L460.801 110.965ZM96.7559 108.343L75.0318 88.0224C75.9817 87.0105 76.9523 85.9986 77.9228 84.9868L99.3372 105.658C98.4699 106.525 97.6026 107.434 96.7559 108.343ZM451.735 101.528C450.847 100.661 449.959 99.7933 449.071 98.9259L469.66 77.4493C470.672 78.4199 471.663 79.3904 472.654 80.3817L451.735 101.528ZM105.945 99.0292L85.3363 77.5732C86.3275 76.6026 87.3394 75.6527 88.3719 74.7027L108.671 96.4479C107.742 97.3152 106.833 98.1619 105.945 99.0292ZM442.236 92.5862C441.307 91.7602 440.357 90.9341 439.407 90.1081L458.86 67.5989C459.913 68.5075 460.945 69.4162 461.998 70.3455L442.236 92.5862ZM115.61 90.2114L96.1365 67.7228C97.1896 66.8142 98.2634 65.9056 99.3166 64.9969L118.439 87.7952C117.489 88.6006 116.539 89.406 115.61 90.2114ZM432.2 84.1194C431.229 83.3347 430.259 82.5706 429.268 81.8066L447.522 58.3268C448.617 59.1941 449.732 60.0408 450.806 60.9288L432.2 84.1194ZM125.708 81.9098L107.432 58.43C108.527 57.5627 109.642 56.716 110.778 55.8694L128.661 79.6383C127.67 80.4023 126.678 81.1664 125.708 81.9098ZM421.792 76.2309C420.78 75.5081 419.748 74.7854 418.715 74.0626L435.71 49.6535C436.846 50.4382 437.982 51.2436 439.118 52.0696L421.792 76.2309ZM136.219 74.1658L119.203 49.7568C120.339 48.9514 121.495 48.1666 122.651 47.4026L139.296 72.0595C138.263 72.7616 137.251 73.4637 136.219 74.1658ZM410.951 68.8586C409.898 68.1771 408.844 67.5163 407.791 66.8555L423.485 41.5791C424.663 42.3225 425.86 43.0659 427.037 43.8094L410.951 68.8586ZM147.143 66.9794L131.428 41.7237C132.605 40.9802 133.803 40.2575 135.021 39.5347L150.323 65.0589C149.228 65.6991 148.175 66.3392 147.143 66.9794ZM399.758 62.0852C398.684 61.4657 397.59 60.8668 396.495 60.2679L410.806 34.1862C412.045 34.8676 413.264 35.5491 414.482 36.2306L399.758 62.0852ZM158.397 60.3918L144.025 34.3307C145.243 33.6699 146.461 32.9884 147.7 32.3483L161.66 58.6159C160.565 59.1941 159.471 59.793 158.397 60.3918ZM388.194 55.9106C387.079 55.3531 385.964 54.7955 384.849 54.2586L397.776 27.454C399.036 28.0736 400.295 28.6724 401.555 29.3126L388.194 55.9106ZM169.982 54.4031L157.014 27.6193C158.253 27.0204 159.512 26.4215 160.772 25.8433L173.348 52.7924C172.233 53.3293 171.097 53.8456 169.982 54.4031ZM376.341 50.3556C375.205 49.86 374.049 49.3644 372.892 48.8894L384.374 21.4447C385.675 21.9816 386.955 22.5392 388.235 23.0968L376.341 50.3556ZM181.856 49.034L170.333 21.6099C171.613 21.073 172.894 20.5361 174.174 20.0198L185.305 47.6091C184.148 48.0841 182.992 48.5383 181.856 49.034ZM364.198 45.4201C363.042 44.9865 361.865 44.5528 360.688 44.1398L370.683 16.1168C372.004 16.5918 373.326 17.0668 374.647 17.5624L364.198 45.4201ZM193.978 44.305L183.921 16.3027C185.222 15.8277 186.544 15.3734 187.865 14.9191L197.488 43.0659C196.332 43.4583 195.155 43.8713 193.978 44.305ZM351.808 41.1661C350.61 40.7944 349.413 40.4226 348.215 40.0716L356.723 11.5737C358.065 11.9661 359.408 12.3791 360.729 12.8127L351.808 41.1661ZM206.409 40.2161L197.839 11.7183C199.182 11.3259 200.503 10.9335 201.845 10.5412L209.982 39.163C208.805 39.4934 207.607 39.8444 206.409 40.2161ZM339.232 37.5729C338.014 37.2631 336.816 36.9533 335.598 36.6642L342.577 7.75332C343.92 8.08373 345.283 8.41415 346.625 8.76521L339.232 37.5729ZM219.027 36.7881L212.005 7.87723C213.368 7.54682 214.711 7.21641 216.074 6.9273L222.661 35.9415C221.443 36.2099 220.224 36.499 219.027 36.7881ZM326.47 34.6405C325.252 34.3927 324.033 34.1655 322.815 33.9383L328.225 4.67638C329.609 4.92418 330.972 5.19264 332.356 5.48175L326.47 34.6405ZM231.788 34.0416L226.316 4.80027C227.679 4.55247 229.063 4.30467 230.446 4.05687L235.464 33.3808C234.225 33.5873 233.007 33.8144 231.788 34.0416ZM313.626 32.4102C312.387 32.2243 311.148 32.0591 309.909 31.8939L313.791 2.40481C315.174 2.59066 316.537 2.77652 317.921 2.98302L313.626 32.4102ZM244.695 31.9559L240.771 2.46676C242.155 2.2809 243.559 2.1157 244.943 1.95049L248.391 31.5016C247.152 31.6461 245.934 31.7907 244.695 31.9559ZM300.657 30.8614C299.418 30.7375 298.159 30.6342 296.92 30.5516L299.232 0.897303C300.616 1.00056 302 1.12447 303.383 1.24838L300.657 30.8614ZM257.705 30.5929L255.35 0.938613C256.734 0.835359 258.138 0.732103 259.522 0.62885L261.442 30.3245C260.183 30.4071 258.944 30.4897 257.705 30.5929ZM287.586 29.9941C286.347 29.9528 285.087 29.9115 283.848 29.8702L284.591 0.133238C285.996 0.17454 287.379 0.21584 288.763 0.277792L287.586 29.9941ZM270.756 29.8908L269.971 0.153878C271.354 0.112576 272.738 0.0919397 274.122 0.0712891L274.514 29.8082C273.254 29.8289 271.995 29.8495 270.756 29.8908Z" fill="#29292E"/>
</svg>
