<svg width="220" height="220" viewBox="0 0 220 220" fill="none" xmlns="http://www.w3.org/2000/svg">
<path d="M110.187 220H109.99C109.433 220 108.885 220 108.337 219.984L108.509 208.196C109 208.204 109.499 208.204 109.99 208.204H110.187V220ZM114.337 219.918L113.886 208.139C114.378 208.122 114.869 208.098 115.36 208.073L115.998 219.853C115.45 219.869 114.893 219.894 114.337 219.918ZM104.195 219.853C103.646 219.82 103.098 219.787 102.549 219.754L103.327 207.992C103.818 208.024 104.317 208.057 104.817 208.082L104.195 219.853ZM120.14 219.542L119.052 207.803C119.551 207.754 120.042 207.705 120.533 207.656L121.777 219.386C121.237 219.435 120.689 219.484 120.14 219.542ZM98.4157 219.394C97.859 219.337 97.3106 219.271 96.7622 219.206L98.1783 207.5C98.6694 207.558 99.1524 207.615 99.6435 207.664L98.4157 219.394ZM125.903 218.854L124.192 207.189C124.683 207.116 125.174 207.042 125.666 206.96L127.54 218.6C127 218.69 126.451 218.772 125.903 218.854ZM92.653 218.633C92.1045 218.543 91.5561 218.453 91.0077 218.355L93.0459 206.739C93.5288 206.821 94.0118 206.903 94.4947 206.985L92.653 218.633ZM131.617 217.872L129.316 206.305C129.799 206.207 130.282 206.109 130.757 206.002L133.245 217.528C132.705 217.651 132.157 217.757 131.617 217.872ZM86.9394 217.569C86.3992 217.454 85.8589 217.331 85.3187 217.209L87.9626 205.716C88.4456 205.83 88.9285 205.937 89.4115 206.035L86.9394 217.569ZM137.289 216.578L134.351 205.159C134.833 205.036 135.308 204.914 135.783 204.783L138.885 216.161C138.361 216.3 137.821 216.439 137.289 216.578ZM81.2995 216.21C80.7593 216.063 80.2272 215.915 79.6952 215.76L82.953 204.423C83.4278 204.562 83.8944 204.693 84.3773 204.815L81.2995 216.21ZM142.872 214.982L139.344 203.727C139.818 203.579 140.285 203.432 140.752 203.277L144.452 214.475C143.928 214.647 143.396 214.818 142.872 214.982ZM75.7333 214.54C75.2094 214.368 74.6856 214.188 74.1699 214.016L78.0007 202.859C78.4755 203.023 78.9503 203.178 79.425 203.334L75.7333 214.54ZM148.364 213.099L144.231 202.057C144.697 201.885 145.156 201.705 145.614 201.525L149.903 212.51C149.396 212.706 148.88 212.903 148.364 213.099ZM70.2489 212.576C69.7333 212.371 69.2176 212.166 68.7019 211.962L73.1385 201.034C73.5969 201.222 74.0553 201.402 74.5218 201.582L70.2489 212.576ZM153.734 210.93L149.044 200.109C149.494 199.912 149.936 199.716 150.386 199.511L155.248 210.251C154.749 210.488 154.242 210.709 153.734 210.93ZM64.8874 210.324C64.3799 210.095 63.8724 209.866 63.373 209.629L68.3908 198.954C68.841 199.167 69.283 199.372 69.7414 199.577L64.8874 210.324ZM158.989 208.483L153.718 197.939C154.16 197.718 154.594 197.497 155.036 197.268L160.471 207.738C159.971 207.983 159.48 208.229 158.989 208.483ZM59.6486 207.787C59.1574 207.533 58.6745 207.279 58.1834 207.017L63.7414 196.622C64.1834 196.859 64.6172 197.088 65.0593 197.317L59.6486 207.787ZM164.097 205.757L158.277 195.5C158.711 195.254 159.137 195.009 159.562 194.763L165.53 204.93C165.055 205.208 164.58 205.487 164.097 205.757ZM54.5571 204.987C54.0824 204.709 53.6076 204.423 53.1328 204.136L59.2475 194.051C59.6731 194.305 60.0988 194.559 60.5244 194.812L54.5571 204.987ZM169.058 202.769L162.714 192.832C163.131 192.57 163.54 192.299 163.95 192.029L170.449 201.869C169.991 202.171 169.524 202.466 169.058 202.769ZM49.613 201.918C49.1546 201.615 48.6962 201.304 48.2378 200.993L54.8764 191.243C55.2856 191.522 55.6949 191.8 56.1124 192.07L49.613 201.918ZM173.871 199.511L166.995 189.934C167.396 189.647 167.805 189.353 168.206 189.058L175.205 198.553C174.755 198.873 174.313 199.192 173.871 199.511ZM44.849 198.594C44.407 198.267 43.9649 197.939 43.5229 197.604L50.6526 188.215C51.0455 188.518 51.4466 188.812 51.8477 189.107L44.849 198.594ZM178.479 196.024L171.137 186.799C171.521 186.496 171.898 186.185 172.283 185.874L179.781 194.976C179.347 195.328 178.913 195.68 178.479 196.024ZM40.2732 195.025C39.8476 194.673 39.4219 194.321 38.9963 193.961L46.6253 184.965C47.0018 185.284 47.3783 185.595 47.7631 185.915L40.2732 195.025ZM182.924 192.291L175.09 183.475C175.459 183.148 175.827 182.82 176.195 182.485L184.152 191.186C183.751 191.555 183.341 191.923 182.924 192.291ZM35.8776 191.219C35.4683 190.851 35.0672 190.474 34.6661 190.097L42.7371 181.502C43.0973 181.846 43.4656 182.182 43.834 182.517L35.8776 191.219ZM187.156 188.329L178.888 179.923C179.24 179.579 179.584 179.227 179.928 178.883L188.335 187.151C187.95 187.552 187.557 187.945 187.156 188.329ZM31.7029 187.208C31.31 186.815 30.9253 186.414 30.5405 186.013L39.0699 177.868C39.4055 178.22 39.7493 178.572 40.0931 178.924L31.7029 187.208ZM191.183 184.146L182.482 176.19C182.818 175.83 183.145 175.461 183.472 175.093L192.296 182.919C191.928 183.328 191.56 183.737 191.183 184.146ZM27.7411 182.968C27.3727 182.558 27.0125 182.141 26.6524 181.723L35.5829 174.021C35.9021 174.397 36.2295 174.766 36.557 175.134L27.7411 182.968ZM194.99 179.767L185.887 172.269C186.198 171.884 186.509 171.508 186.82 171.123L196.037 178.474C195.685 178.908 195.342 179.341 194.99 179.767ZM24.0002 178.531C23.6564 178.097 23.3126 177.663 22.9688 177.221L32.3004 170.018C32.6033 170.403 32.9062 170.787 33.209 171.172L24.0002 178.531ZM198.558 175.183L189.071 168.184C189.366 167.783 189.653 167.382 189.947 166.981L199.541 173.841C199.213 174.291 198.886 174.733 198.558 175.183ZM20.505 173.906C20.1857 173.456 19.8665 173.006 19.5554 172.555L29.239 165.827C29.5255 166.236 29.8038 166.637 30.0903 167.038L20.505 173.906ZM201.882 170.427L192.043 163.928C192.313 163.518 192.583 163.109 192.845 162.692L202.79 169.027C202.488 169.494 202.185 169.961 201.882 170.427ZM17.2553 169.101C16.9606 168.634 16.6659 168.168 16.3794 167.701L26.4068 161.496C26.6687 161.914 26.9307 162.331 27.1926 162.749L17.2553 169.101ZM204.96 165.483L194.785 159.524C195.039 159.098 195.284 158.664 195.53 158.23L205.786 164.05C205.508 164.525 205.238 165.008 204.96 165.483ZM14.2675 164.149C13.9974 163.666 13.7273 163.183 13.4571 162.7L23.7956 157.027C24.033 157.461 24.2703 157.887 24.5159 158.312L14.2675 164.149ZM207.759 160.391L197.29 154.964C197.519 154.522 197.74 154.088 197.961 153.646L208.512 158.91C208.267 159.409 208.013 159.9 207.759 160.391ZM11.5335 159.041C11.288 158.55 11.0424 158.05 10.805 157.551L21.4299 152.435C21.6428 152.877 21.8556 153.319 22.0766 153.753L11.5335 159.041ZM210.297 155.153L199.549 150.307C199.754 149.856 199.958 149.398 200.155 148.948L210.976 153.638C210.755 154.146 210.526 154.645 210.297 155.153ZM9.08603 153.786C8.86502 153.278 8.65219 152.77 8.43937 152.263L19.318 147.72C19.5063 148.17 19.7028 148.629 19.8992 149.079L9.08603 153.786ZM212.556 149.791L201.563 145.51C201.743 145.051 201.923 144.585 202.095 144.118L213.145 148.236C212.949 148.759 212.752 149.275 212.556 149.791ZM6.91684 148.424C6.72039 147.908 6.53212 147.384 6.34385 146.86L17.4517 142.907C17.6154 143.373 17.7873 143.832 17.9592 144.29L6.91684 148.424ZM214.52 144.298L203.314 140.623C203.47 140.148 203.617 139.673 203.773 139.199L215.028 142.71C214.864 143.25 214.701 143.774 214.52 144.298ZM5.02597 142.923C4.86225 142.399 4.69854 141.875 4.54301 141.351L15.8392 137.962C15.9865 138.437 16.1257 138.92 16.2812 139.395L5.02597 142.923ZM216.19 138.748L204.812 135.654C204.943 135.179 205.066 134.705 205.189 134.23L216.616 137.136C216.477 137.668 216.338 138.208 216.19 138.748ZM3.42977 137.34C3.29061 136.808 3.15965 136.268 3.02868 135.728L14.4967 132.977C14.6113 133.46 14.7341 133.935 14.8569 134.41L3.42977 137.34ZM217.557 133.092L206.024 130.62C206.13 130.137 206.228 129.654 206.327 129.171L217.893 131.471C217.786 132.011 217.672 132.552 217.557 133.092ZM2.13645 131.684C2.03003 131.144 1.92362 130.595 1.82539 130.055L13.4244 127.91C13.5144 128.393 13.6045 128.885 13.7027 129.367L2.13645 131.684ZM218.621 127.395L206.981 125.52C207.055 125.037 207.129 124.554 207.202 124.063L218.875 125.741C218.793 126.298 218.711 126.846 218.621 127.395ZM1.14598 125.954C1.06412 125.406 0.990456 124.865 0.916785 124.317L12.6058 122.778C12.6713 123.269 12.7368 123.76 12.8105 124.251L1.14598 125.954ZM219.391 121.632L207.661 120.388C207.71 119.897 207.759 119.414 207.808 118.922L219.555 119.978C219.497 120.527 219.448 121.083 219.391 121.632ZM0.458392 120.199C0.409279 119.643 0.360167 119.094 0.319239 118.538L12.0738 117.637C12.1065 118.128 12.1556 118.62 12.1966 119.103L0.458392 120.199ZM219.849 115.836L208.07 115.231C208.095 114.731 208.119 114.24 208.136 113.741L219.915 114.191C219.898 114.74 219.874 115.288 219.849 115.836ZM0.0818549 114.404C0.0572981 113.855 0.0409271 113.307 0.0245558 112.75L11.8118 112.456C11.82 112.947 11.8364 113.446 11.861 113.937L0.0818549 114.404ZM208.209 110.041C208.209 109.501 208.209 109.034 208.201 108.559L219.988 108.379C219.997 108.919 220.005 109.468 219.997 110.008L208.209 110.041ZM11.7873 108.748L0 108.608C0.00818562 108.052 0.0163657 107.503 0.032737 106.955L11.82 107.266C11.8037 107.757 11.7955 108.256 11.7873 108.748ZM208.07 104.859C208.046 104.36 208.013 103.869 207.98 103.37L219.743 102.592C219.776 103.14 219.808 103.689 219.841 104.237L208.07 104.859ZM11.9919 103.574L0.221009 102.813C0.253751 102.264 0.294681 101.708 0.343794 101.159L12.0983 102.093C12.0574 102.584 12.0247 103.075 11.9919 103.574ZM207.669 99.686C207.62 99.1948 207.563 98.7037 207.505 98.2125L219.211 96.8128C219.276 97.3612 219.342 97.9097 219.399 98.4663L207.669 99.686ZM12.4585 98.409L0.744888 97.0256C0.810373 96.4772 0.875858 95.9287 0.949528 95.3803L12.6386 96.9355C12.5813 97.4349 12.524 97.9178 12.4585 98.409ZM206.998 94.5453C206.924 94.0542 206.842 93.5712 206.752 93.0883L218.368 91.0664C218.466 91.6066 218.556 92.1551 218.638 92.7035L206.998 94.5453ZM13.2034 93.2847L1.57982 91.2792C1.66987 90.7308 1.76809 90.1905 1.8745 89.6502L13.4653 91.8195C13.3753 92.3106 13.2853 92.7936 13.2034 93.2847ZM206.048 89.462C205.942 88.979 205.835 88.4879 205.729 88.0049L217.222 85.3691C217.344 85.9094 217.467 86.4414 217.582 86.9817L206.048 89.462ZM14.2184 88.2014L2.71762 85.5901C2.84041 85.0499 2.97137 84.5014 3.10234 83.9611L14.554 86.7689C14.4394 87.2436 14.3248 87.7266 14.2184 88.2014ZM204.829 84.4195C204.698 83.9448 204.567 83.4618 204.428 82.987L215.765 79.7537C215.912 80.2857 216.059 80.8096 216.207 81.3417L204.829 84.4195ZM15.5036 83.1835L4.15829 79.9665C4.30563 79.4344 4.46116 78.9024 4.62487 78.3703L15.921 81.7592C15.7737 82.234 15.6345 82.7087 15.5036 83.1835ZM203.347 79.459C203.192 78.9924 203.036 78.5176 202.872 78.051L214.021 74.2037C214.201 74.7276 214.373 75.2515 214.553 75.7754L203.347 79.459ZM17.0506 78.2311L5.89364 74.4084C6.07372 73.8845 6.25381 73.3606 6.44208 72.8367L17.5418 76.8232C17.3781 77.2898 17.2143 77.7564 17.0506 78.2311ZM201.604 74.5803C201.423 74.1219 201.243 73.6635 201.055 73.2051L211.983 68.7766C212.188 69.2841 212.392 69.7998 212.589 70.3073L201.604 74.5803ZM18.8678 73.3606L7.93186 68.9485C8.1365 68.4328 8.34933 67.9253 8.56215 67.4178L19.4326 71.9936C19.2444 72.4438 19.0561 72.9022 18.8678 73.3606ZM199.606 69.8162C199.402 69.366 199.197 68.9239 198.992 68.4737L209.675 63.4722C209.912 63.9716 210.141 64.4709 210.362 64.9784L199.606 69.8162ZM20.9388 68.5965L10.2484 63.6114C10.4858 63.1039 10.7232 62.6046 10.9687 62.097L21.5691 67.2622C21.3644 67.7043 21.1516 68.1463 20.9388 68.5965ZM197.363 65.1585C197.134 64.7165 196.905 64.2826 196.676 63.8488L207.08 58.2907C207.342 58.7736 207.595 59.2648 207.849 59.7559L197.363 65.1585ZM23.2635 63.9552L12.8514 58.4135C13.1134 57.9223 13.3753 57.4394 13.6454 56.9564L23.9675 62.6537C23.7301 63.0793 23.4927 63.5132 23.2635 63.9552ZM194.867 60.6236C194.621 60.1979 194.367 59.7805 194.114 59.3548L204.207 53.2483C204.493 53.723 204.771 54.1978 205.058 54.6726L194.867 60.6236ZM25.8256 59.4449L15.7246 53.3547C16.0111 52.8799 16.2976 52.4133 16.5922 51.9385L26.5951 58.1761C26.3331 58.5935 26.0794 59.0192 25.8256 59.4449ZM192.149 56.2279C191.879 55.8186 191.601 55.4011 191.331 55L201.088 48.3777C201.399 48.8361 201.702 49.2945 202.005 49.7529L192.149 56.2279ZM28.6169 55.0737L18.8597 48.4596C19.1707 48.0012 19.4818 47.551 19.7928 47.1008L29.4682 53.8376C29.1817 54.2469 28.8952 54.6562 28.6169 55.0737ZM189.186 51.9713C188.891 51.5784 188.597 51.1773 188.302 50.7843L197.699 43.6627C198.035 44.1048 198.362 44.5468 198.689 44.9888L189.186 51.9713ZM31.6374 50.8498L22.2403 43.7282C22.5759 43.2862 22.9115 42.8524 23.2471 42.4185L32.546 49.6711C32.2431 50.064 31.9403 50.4569 31.6374 50.8498ZM186.018 47.8866C185.707 47.5019 185.388 47.1253 185.069 46.7488L194.081 39.1442C194.433 39.5617 194.785 39.9873 195.137 40.413L186.018 47.8866ZM34.8789 46.7979L25.8584 39.2015C26.2185 38.7759 26.5787 38.3584 26.9389 37.9409L35.8366 45.6846C35.5174 46.0448 35.1981 46.4213 34.8789 46.7979ZM182.629 43.9574C182.294 43.5891 181.966 43.2289 181.622 42.8687L190.226 34.8058C190.602 35.2069 190.979 35.6162 191.355 36.0254L182.629 43.9574ZM38.325 42.9178L29.7138 34.8631C30.0903 34.462 30.475 34.0609 30.8598 33.6598L39.3482 41.8537C39.0045 42.1975 38.6607 42.5577 38.325 42.9178ZM179.036 40.2165C178.684 39.8727 178.332 39.5289 177.98 39.1851L186.141 30.672C186.542 31.0567 186.935 31.4414 187.328 31.8343L179.036 40.2165ZM41.9677 39.2261L33.7984 30.7211C34.1913 30.3364 34.5924 29.9598 35.0017 29.5833L43.0481 38.2029C42.6798 38.5467 42.3196 38.8823 41.9677 39.2261ZM175.27 36.6721C174.902 36.3447 174.525 36.0173 174.149 35.6898L181.86 26.7674C182.277 27.1275 182.687 27.4877 183.104 27.8561L175.27 36.6721ZM45.7985 35.7308L38.0795 26.8165C38.497 26.4563 38.9226 26.0961 39.3401 25.736L46.9199 34.773C46.5434 35.0923 46.1669 35.4115 45.7985 35.7308ZM171.292 33.316C170.907 33.0049 170.523 32.702 170.13 32.3992L177.366 23.092C177.8 23.4358 178.242 23.7714 178.667 24.1234L171.292 33.316ZM49.8013 32.4401L42.557 23.1329C42.9908 22.7891 43.4329 22.4535 43.8831 22.1179L50.9718 31.5397C50.5789 31.8425 50.186 32.1454 49.8013 32.4401ZM167.167 30.189C166.766 29.9025 166.356 29.616 165.947 29.3295L172.684 19.654C173.134 19.965 173.584 20.2843 174.034 20.6117L167.167 30.189ZM53.9678 29.3704L47.2228 19.6949C47.673 19.3756 48.1314 19.0646 48.5898 18.7617L55.1874 28.5355C54.7781 28.8138 54.377 29.0921 53.9678 29.3704ZM162.869 27.2667C162.452 26.9966 162.034 26.7346 161.617 26.4727L167.838 16.4533C168.304 16.748 168.779 17.0427 169.246 17.3374L162.869 27.2667ZM58.298 26.5218L52.0687 16.5106C52.5353 16.216 53.01 15.9295 53.493 15.643L59.5585 25.7605C59.1247 26.0143 58.7072 26.268 58.298 26.5218ZM158.433 24.5818C158.007 24.3362 157.573 24.0988 157.139 23.8614L162.812 13.5228C163.303 13.793 163.786 14.0631 164.269 14.3332L158.433 24.5818ZM62.7591 23.9105L57.0619 13.5801C57.5449 13.3182 58.0278 13.0481 58.519 12.7943L64.0524 23.2066C63.6186 23.4358 63.1848 23.6732 62.7591 23.9105ZM153.849 22.1342C153.407 21.9132 152.965 21.6922 152.523 21.4794L157.647 10.8543C158.146 11.0999 158.645 11.3372 159.145 11.591L153.849 22.1342ZM67.3512 21.5367L62.2107 10.9198C62.7018 10.6824 63.2011 10.445 63.7005 10.2158L68.6855 20.8982C68.2435 21.111 67.7933 21.3157 67.3512 21.5367ZM149.15 19.9323C148.7 19.7358 148.241 19.5394 147.783 19.3511L152.334 8.47224C152.85 8.68507 153.357 8.90608 153.865 9.1271L149.15 19.9323ZM72.058 19.4084L67.4904 8.53773C67.9979 8.3249 68.5054 8.11207 69.0129 7.90742L73.425 18.8436C72.9666 19.0319 72.5082 19.2119 72.058 19.4084ZM144.337 17.9759C143.879 17.804 143.412 17.6321 142.945 17.4684L146.907 6.36032C147.431 6.54859 147.955 6.73686 148.479 6.93332L144.337 17.9759ZM76.8629 17.5339L72.8765 6.43399C73.3922 6.24572 73.9161 6.06563 74.44 5.88554L78.2545 17.0427C77.7961 17.1982 77.3295 17.362 76.8629 17.5339ZM139.426 16.2896C138.951 16.1423 138.476 15.9949 138.001 15.8558L141.374 4.55946C141.906 4.71499 142.438 4.8787 142.962 5.0506L139.426 16.2896ZM81.7907 15.9131L78.3936 4.61676C78.9257 4.46123 79.4496 4.3057 79.9816 4.15017L83.2068 15.4956C82.7402 15.6266 82.2654 15.7657 81.7907 15.9131ZM134.441 14.8653C133.958 14.7425 133.483 14.6197 133 14.5051L135.767 3.04509C136.299 3.17606 136.839 3.30704 137.371 3.4462L134.441 14.8653ZM86.7921 14.5542L84.009 3.09421C84.5492 2.96324 85.0813 2.83227 85.6215 2.71767L88.2327 14.2186C87.7498 14.325 87.2668 14.4396 86.7921 14.5542ZM129.382 13.7029C128.899 13.6047 128.416 13.5147 127.933 13.4246L130.078 1.82542C130.626 1.92365 131.166 2.03006 131.715 2.14466L129.382 13.7029ZM91.8508 13.4655L89.6816 1.87453C90.2219 1.7763 90.7703 1.67808 91.3187 1.57985L93.3078 13.2036C92.8167 13.2855 92.3337 13.3755 91.8508 13.4655ZM124.29 12.8189C123.799 12.7452 123.308 12.6797 122.817 12.6142L124.356 0.924987C124.904 0.998658 125.445 1.07233 125.993 1.15419L124.29 12.8189ZM96.9668 12.6388L95.4115 0.949543C95.96 0.875871 96.5166 0.810385 97.065 0.744899L98.432 12.4587C97.9409 12.516 97.4579 12.5733 96.9668 12.6388ZM119.15 12.2049C118.659 12.1558 118.159 12.1149 117.668 12.0822L118.585 0.327425C119.133 0.368353 119.682 0.417473 120.23 0.466587L119.15 12.2049ZM102.124 12.0985L101.191 0.3438C101.739 0.302871 102.296 0.261941 102.844 0.221012L103.605 11.9921C103.106 12.0248 102.615 12.0576 102.124 12.0985ZM113.968 11.8611C113.477 11.8448 112.978 11.8284 112.487 11.812L112.781 0.0245562C113.338 0.0409277 113.886 0.0572989 114.435 0.0818562L113.968 11.8611ZM107.297 11.8202L106.986 0.0327375C107.534 0.016366 108.083 0.00818574 108.631 0L108.787 11.7875C108.288 11.7956 107.788 11.8038 107.297 11.8202Z" fill="#29292E"/>
</svg>
